# Blender v2.77 (sub 0) OBJ File: ''
# www.blender.org
mtllib cube.mtl
o Cube
usemtl Material
s off
v 1.222128 -1.222128 -1.222128
v 1.174557 -1.174557 1.174557
v -1.243738 -1.243738 1.243738
v -1.243172 -1.243172 -1.243172
v 1.311174 1.311174 -1.311173
v 1.318919 1.318921 1.318922
v -1.239416 1.239416 1.239416
v -1.130633 1.130633 -1.130633
vt 0.0000 0.0000
vt 1.0000 0.0000
vt 1.0000 1.0000
vt 0.0000 1.0000
vt 0.0000 0.0000
vt 1.0000 0.0000
vt 1.0000 1.0000
vt 0.0000 1.0000
vt 1.0000 0.0000
vt 1.0000 1.0000
vt 0.0000 1.0000
vt 0.0000 0.0000
vt 1.0000 0.0000
vt 0.0000 1.0000
vt 0.0000 0.0000
vt 1.0000 0.0000
vt 1.0000 1.0000
vt 1.0000 0.0000
vt 1.0000 1.0000
vt 0.0000 1.0000
vn 0.0292 -0.9994 0.0204
vn -0.0773 0.9958 -0.0493
vn 0.9994 -0.0352 -0.0028
vn -0.0293 -0.0561 0.9980
vn -0.9989 0.0017 -0.0459
vn 0.0088 -0.0354 -0.9993
f 1/1/1 2/2/1 3/3/1 4/4/1
f 5/5/2 8/6/2 7/7/2 6/8/2
f 1/1/3 5/9/3 6/10/3 2/11/3
f 2/12/4 6/13/4 7/7/4 3/14/4
f 3/15/5 7/16/5 8/17/5 4/4/5
f 5/5/6 1/18/6 4/19/6 8/20/6
