# Blender v2.77 (sub 0) OBJ File: ''
# www.blender.org
mtllib cube.mtl
o Cube
usemtl Material
s off
v 1.210555 -1.210555 -1.210555
v 1.224086 -1.224086 1.224086
v -1.143431 -1.143431 1.143431
v -1.153551 -1.153551 -1.153551
v 1.176424 1.176424 -1.176423
v 1.199474 1.199476 1.199477
v -1.295803 1.295804 1.295803
v -1.214151 1.214151 -1.214151
vt 0.0000 0.0000
vt 1.0000 0.0000
vt 1.0000 1.0000
vt 0.0000 1.0000
vt 0.0000 0.0000
vt 1.0000 0.0000
vt 1.0000 1.0000
vt 0.0000 1.0000
vt 1.0000 0.0000
vt 1.0000 1.0000
vt 0.0000 1.0000
vt 0.0000 0.0000
vt 1.0000 0.0000
vt 0.0000 1.0000
vt 0.0000 0.0000
vt 1.0000 0.0000
vt 1.0000 1.0000
vt 1.0000 0.0000
vt 1.0000 1.0000
vt 0.0000 1.0000
vn -0.0339 -0.9994 -0.0054
vn 0.0163 0.9994 -0.0320
vn 0.9998 0.0144 -0.0098
vn 0.0390 0.0105 0.9992
vn -0.9977 -0.0604 -0.0305
vn -0.0238 0.0140 -0.9996
f 1/1/1 2/2/1 3/3/1 4/4/1
f 5/5/2 8/6/2 7/7/2 6/8/2
f 1/1/3 5/9/3 6/10/3 2/11/3
f 2/12/4 6/13/4 7/7/4 3/14/4
f 3/15/5 7/16/5 8/17/5 4/4/5
f 5/5/6 1/18/6 4/19/6 8/20/6
