# Blender v2.77 (sub 0) OBJ File: ''
# www.blender.org
mtllib cube.mtl
o Cube
usemtl Material
s off
v 1.293272 -1.293272 -1.293272
v 1.209883 -1.209883 1.209882
v -1.247506 -1.247506 1.247506
v -1.248210 -1.248210 -1.248210
v 1.228619 1.228619 -1.228618
v 1.290949 1.290950 1.290951
v -1.141714 1.141714 1.141714
v -1.192717 1.192717 -1.192717
vt 0.0000 0.0000
vt 1.0000 0.0000
vt 1.0000 1.0000
vt 0.0000 1.0000
vt 0.0000 0.0000
vt 1.0000 0.0000
vt 1.0000 1.0000
vt 0.0000 1.0000
vt 1.0000 0.0000
vt 1.0000 1.0000
vt 0.0000 1.0000
vt 0.0000 0.0000
vt 1.0000 0.0000
vt 0.0000 1.0000
vt 0.0000 0.0000
vt 1.0000 0.0000
vt 1.0000 1.0000
vt 1.0000 0.0000
vt 1.0000 1.0000
vt 0.0000 1.0000
vn 0.0158 -0.9993 0.0338
vn -0.0145 0.9996 0.0222
vn 0.9993 0.0263 -0.0254
vn -0.0593 -0.0304 0.9978
vn -0.9987 0.0452 0.0228
vn -0.0173 0.0252 -0.9995
f 1/1/1 2/2/1 3/3/1 4/4/1
f 5/5/2 8/6/2 7/7/2 6/8/2
f 1/1/3 5/9/3 6/10/3 2/11/3
f 2/12/4 6/13/4 7/7/4 3/14/4
f 3/15/5 7/16/5 8/17/5 4/4/5
f 5/5/6 1/18/6 4/19/6 8/20/6
