# Blender v2.77 (sub 0) OBJ File: ''
# www.blender.org
mtllib cube.mtl
o Cube
usemtl Material
s off
v 1.216221 -1.216221 -1.216222
v 1.174340 -1.174340 1.174339
v -1.194154 -1.194154 1.194154
v -1.200841 -1.200841 -1.200841
v 1.202128 1.202128 -1.202127
v 1.267279 1.267280 1.267281
v -1.195745 1.195745 1.195745
v -1.169047 1.169047 -1.169047
vt 0.0000 0.0000
vt 1.0000 0.0000
vt 1.0000 1.0000
vt 0.0000 1.0000
vt 0.0000 0.0000
vt 1.0000 0.0000
vt 1.0000 1.0000
vt 0.0000 1.0000
vt 1.0000 0.0000
vt 1.0000 1.0000
vt 0.0000 1.0000
vt 0.0000 0.0000
vt 1.0000 0.0000
vt 0.0000 1.0000
vt 0.0000 0.0000
vt 1.0000 0.0000
vt 1.0000 1.0000
vt 1.0000 0.0000
vt 1.0000 1.0000
vt 0.0000 1.0000
vn 0.0085 -0.9998 0.0177
vn -0.0141 0.9998 -0.0114
vn 0.9996 0.0060 -0.0265
vn -0.0279 -0.0370 0.9989
vn -0.9999 -0.0007 -0.0113
vn -0.0063 0.0058 -1.0000
f 1/1/1 2/2/1 3/3/1 4/4/1
f 5/5/2 8/6/2 7/7/2 6/8/2
f 1/1/3 5/9/3 6/10/3 2/11/3
f 2/12/4 6/13/4 7/7/4 3/14/4
f 3/15/5 7/16/5 8/17/5 4/4/5
f 5/5/6 1/18/6 4/19/6 8/20/6
