# Blender v2.77 (sub 0) OBJ File: ''
# www.blender.org
mtllib cube.mtl
o Cube
usemtl Material
s off
v 1.294156 -1.294156 -1.294156
v 1.338157 -1.338157 1.338157
v -1.149901 -1.149901 1.149901
v -1.093899 -1.093899 -1.093899
v 1.151215 1.151215 -1.151214
v 1.169646 1.169647 1.169648
v -1.248660 1.248660 1.248660
v -1.275236 1.275236 -1.275237
vt 0.0000 0.0000
vt 1.0000 0.0000
vt 1.0000 1.0000
vt 0.0000 1.0000
vt 0.0000 0.0000
vt 1.0000 0.0000
vt 1.0000 1.0000
vt 0.0000 1.0000
vt 1.0000 0.0000
vt 1.0000 1.0000
vt 0.0000 1.0000
vt 0.0000 0.0000
vt 1.0000 0.0000
vt 0.0000 1.0000
vt 0.0000 0.0000
vt 1.0000 0.0000
vt 1.0000 1.0000
vt 1.0000 0.0000
vt 1.0000 1.0000
vt 0.0000 1.0000
vn -0.0743 -0.9971 -0.0154
vn 0.0505 0.9987 0.0100
vn 0.9982 0.0588 -0.0084
vn 0.0348 0.0693 0.9970
vn -0.9991 -0.0416 0.0101
vn -0.0790 0.0536 -0.9954
f 1/1/1 2/2/1 3/3/1 4/4/1
f 5/5/2 8/6/2 7/7/2 6/8/2
f 1/1/3 5/9/3 6/10/3 2/11/3
f 2/12/4 6/13/4 7/7/4 3/14/4
f 3/15/5 7/16/5 8/17/5 4/4/5
f 5/5/6 1/18/6 4/19/6 8/20/6
