# Blender v2.77 (sub 0) OBJ File: ''
# www.blender.org
mtllib cube.mtl
o Cube
usemtl Material
s off
v 1.106770 -1.106770 -1.106770
v 1.271120 -1.271120 1.271120
v -1.125070 -1.125070 1.125070
v -1.245511 -1.245511 -1.245511
v 1.349878 1.349878 -1.349876
v 1.168513 1.168514 1.168515
v -1.301141 1.301141 1.301141
v -1.180485 1.180485 -1.180485
vt 0.0000 0.0000
vt 1.0000 0.0000
vt 1.0000 1.0000
vt 0.0000 1.0000
vt 0.0000 0.0000
vt 1.0000 0.0000
vt 1.0000 1.0000
vt 0.0000 1.0000
vt 1.0000 0.0000
vt 1.0000 1.0000
vt 0.0000 1.0000
vt 0.0000 0.0000
vt 1.0000 0.0000
vt 0.0000 1.0000
vt 0.0000 0.0000
vt 1.0000 0.0000
vt 1.0000 1.0000
vt 1.0000 0.0000
vt 1.0000 1.0000
vt 0.0000 1.0000
vn -0.0568 -0.9963 -0.0649
vn -0.0702 0.9962 -0.0518
vn 0.9936 -0.0919 0.0649
vn 0.0559 0.0443 0.9975
vn -0.9966 -0.0691 -0.0451
vn 0.0647 -0.1046 -0.9924
f 1/1/1 2/2/1 3/3/1 4/4/1
f 5/5/2 8/6/2 7/7/2 6/8/2
f 1/1/3 5/9/3 6/10/3 2/11/3
f 2/12/4 6/13/4 7/7/4 3/14/4
f 3/15/5 7/16/5 8/17/5 4/4/5
f 5/5/6 1/18/6 4/19/6 8/20/6
