# Blender v2.77 (sub 0) OBJ File: ''
# www.blender.org
mtllib cube.mtl
o Cube
usemtl Material
s off
v 1.298593 -1.298593 -1.298593
v 1.233013 -1.233013 1.233013
v -1.316893 -1.316893 1.316893
v -1.346151 -1.346151 -1.346151
v 1.258820 1.258820 -1.258819
v 1.325952 1.325953 1.325954
v -1.164844 1.164844 1.164844
v -1.227720 1.227720 -1.227720
vt 0.0000 0.0000
vt 1.0000 0.0000
vt 1.0000 1.0000
vt 0.0000 1.0000
vt 0.0000 0.0000
vt 1.0000 0.0000
vt 1.0000 1.0000
vt 0.0000 1.0000
vt 1.0000 0.0000
vt 1.0000 1.0000
vt 0.0000 1.0000
vt 0.0000 0.0000
vt 1.0000 0.0000
vt 0.0000 1.0000
vt 0.0000 0.0000
vt 1.0000 0.0000
vt 1.0000 1.0000
vt 1.0000 0.0000
vt 1.0000 1.0000
vt 0.0000 1.0000
vn 0.0337 -0.9991 0.0268
vn -0.0122 0.9996 0.0266
vn 0.9995 0.0160 -0.0264
vn -0.0623 -0.0340 0.9975
vn -0.9976 0.0628 0.0279
vn 0.0177 0.0158 -0.9997
f 1/1/1 2/2/1 3/3/1 4/4/1
f 5/5/2 8/6/2 7/7/2 6/8/2
f 1/1/3 5/9/3 6/10/3 2/11/3
f 2/12/4 6/13/4 7/7/4 3/14/4
f 3/15/5 7/16/5 8/17/5 4/4/5
f 5/5/6 1/18/6 4/19/6 8/20/6
