# Blender v2.77 (sub 0) OBJ File: ''
# www.blender.org
mtllib cube.mtl
o Cube
usemtl Material
s off
v 1.159416 -1.159416 -1.159416
v 1.111845 -1.111845 1.111845
v -1.151344 -1.151344 1.151344
v -1.150779 -1.150779 -1.150779
v 1.248462 1.248462 -1.248461
v 1.235577 1.235578 1.235580
v -1.286908 1.286908 1.286908
v -1.299108 1.299108 -1.299108
vt 0.0000 0.0000
vt 1.0000 0.0000
vt 1.0000 1.0000
vt 0.0000 1.0000
vt 0.0000 0.0000
vt 1.0000 0.0000
vt 1.0000 1.0000
vt 0.0000 1.0000
vt 1.0000 0.0000
vt 1.0000 1.0000
vt 0.0000 1.0000
vt 0.0000 0.0000
vt 1.0000 0.0000
vt 0.0000 1.0000
vt 0.0000 0.0000
vt 1.0000 0.0000
vt 1.0000 1.0000
vt 1.0000 0.0000
vt 1.0000 1.0000
vt 0.0000 1.0000
vn 0.0178 -0.9996 0.0213
vn 0.0198 0.9998 0.0046
vn 0.9993 -0.0368 0.0050
vn 0.0192 -0.0536 0.9984
vn -0.9984 -0.0558 0.0044
vn -0.0039 -0.0368 -0.9993
f 1/1/1 2/2/1 3/3/1 4/4/1
f 5/5/2 8/6/2 7/7/2 6/8/2
f 1/1/3 5/9/3 6/10/3 2/11/3
f 2/12/4 6/13/4 7/7/4 3/14/4
f 3/15/5 7/16/5 8/17/5 4/4/5
f 5/5/6 1/18/6 4/19/6 8/20/6
