# Blender v2.77 (sub 0) OBJ File: ''
# www.blender.org
mtllib cube.mtl
o Cube
usemtl Material
s off
v 1.230157 -1.230157 -1.230157
v 1.129587 -1.129587 1.129587
v -1.216778 -1.216778 1.216778
v -1.277715 -1.277715 -1.277715
v 1.167320 1.167320 -1.167319
v 1.257516 1.257517 1.257518
v -1.096408 1.096408 1.096408
v -1.127605 1.127605 -1.127605
vt 0.0000 0.0000
vt 1.0000 0.0000
vt 1.0000 1.0000
vt 0.0000 1.0000
vt 0.0000 0.0000
vt 1.0000 0.0000
vt 1.0000 1.0000
vt 0.0000 1.0000
vt 1.0000 0.0000
vt 1.0000 1.0000
vt 0.0000 1.0000
vt 0.0000 0.0000
vt 1.0000 0.0000
vt 0.0000 1.0000
vt 0.0000 0.0000
vt 1.0000 0.0000
vt 1.0000 1.0000
vt 1.0000 0.0000
vt 1.0000 1.0000
vt 0.0000 1.0000
vn 0.0387 -0.9983 0.0442
vn -0.0171 0.9998 0.0143
vn 0.9989 0.0272 -0.0382
vn -0.0648 -0.0499 0.9966
vn -0.9985 0.0527 0.0147
vn 0.0184 0.0267 -0.9995
f 1/1/1 2/2/1 3/3/1 4/4/1
f 5/5/2 8/6/2 7/7/2 6/8/2
f 1/1/3 5/9/3 6/10/3 2/11/3
f 2/12/4 6/13/4 7/7/4 3/14/4
f 3/15/5 7/16/5 8/17/5 4/4/5
f 5/5/6 1/18/6 4/19/6 8/20/6
