# Blender v2.77 (sub 0) OBJ File: ''
# www.blender.org
mtllib cube.mtl
o Cube
usemtl Material
s off
v 1.269574 -1.269573 -1.269574
v 1.325953 -1.325953 1.325953
v -1.137697 -1.137697 1.137697
v -1.081695 -1.081695 -1.081695
v 1.139011 1.139011 -1.139010
v 1.119003 1.119004 1.119005
v -1.202072 1.202072 1.202072
v -1.267652 1.267652 -1.267652
vt 0.0000 0.0000
vt 1.0000 0.0000
vt 1.0000 1.0000
vt 0.0000 1.0000
vt 0.0000 0.0000
vt 1.0000 0.0000
vt 1.0000 1.0000
vt 0.0000 1.0000
vt 1.0000 0.0000
vt 1.0000 1.0000
vt 0.0000 1.0000
vt 0.0000 0.0000
vt 1.0000 0.0000
vt 0.0000 1.0000
vt 0.0000 0.0000
vt 1.0000 0.0000
vt 1.0000 1.0000
vt 1.0000 0.0000
vt 1.0000 1.0000
vt 0.0000 1.0000
vn -0.0747 -0.9970 -0.0200
vn 0.0520 0.9983 0.0251
vn 0.9985 0.0536 0.0093
vn 0.0388 0.0875 0.9954
vn -0.9993 -0.0282 0.0258
vn -0.0756 0.0499 -0.9959
f 1/1/1 2/2/1 3/3/1 4/4/1
f 5/5/2 8/6/2 7/7/2 6/8/2
f 1/1/3 5/9/3 6/10/3 2/11/3
f 2/12/4 6/13/4 7/7/4 3/14/4
f 3/15/5 7/16/5 8/17/5 4/4/5
f 5/5/6 1/18/6 4/19/6 8/20/6
