# Blender v2.78 (sub 0) OBJ File: ''
# www.blender.org
mtllib sphere.mtl
o Sphere
usemtl None
s 1
v 0.038177 0.983793 -0.191929
v 0.074846 0.926202 -0.376273
v 0.108252 0.830443 -0.544222
v 0.134750 0.690704 -0.677432
v 0.164586 0.563699 -0.827425
v 0.180293 0.382796 -0.906395
v 0.190910 0.194649 -0.959767
v 0.191399 0.000000 -0.962230
v 0.187328 -0.190998 -0.941763
v 0.184144 -0.390972 -0.925753
v 0.156891 -0.537346 -0.788742
v 0.135683 -0.695489 -0.682125
v 0.109379 -0.839086 -0.549886
v 0.072091 -0.892113 -0.362425
v 0.036930 -0.951671 -0.185661
v 0.073233 0.962065 -0.176800
v 0.143334 0.904243 -0.346038
v 0.210301 0.822447 -0.507710
v 0.270836 0.707728 -0.653855
v 0.306574 0.535287 -0.740134
v 0.348295 0.376991 -0.840858
v 0.366878 0.190697 -0.885723
v 0.376524 0.000000 -0.909008
v 0.369283 -0.191947 -0.891529
v 0.359538 -0.389160 -0.868000
v 0.315747 -0.551304 -0.762280
v 0.270697 -0.707365 -0.653519
v 0.219565 -0.858677 -0.530075
v 0.149080 -0.940491 -0.359910
v 0.076029 -0.998795 -0.183550
v 0.111478 1.008752 -0.166838
v 0.212791 0.924675 -0.318464
v 0.311442 0.838969 -0.466106
v 0.388766 0.699759 -0.581828
v 0.467642 0.562428 -0.699876
v 0.512468 0.382078 -0.766963
v 0.543577 0.194618 -0.813520
v 0.555195 0.000000 -0.830908
v 0.537663 -0.192501 -0.804669
v 0.506829 -0.377873 -0.758523
v 0.462306 -0.556011 -0.691890
v 0.389742 -0.701516 -0.583290
v 0.310548 -0.836562 -0.464769
v 0.206487 -0.897281 -0.309028
v 0.106409 -0.962893 -0.159252
v 0.137621 0.978447 -0.137621
v 0.268968 0.918314 -0.268968
v 0.399370 0.845274 -0.399369
v 0.499965 0.707058 -0.499965
v 0.590946 0.558412 -0.590946
v 0.666566 0.390465 -0.666565
v 0.705005 0.198321 -0.705005
v 0.694381 0.000000 -0.694381
v 0.684209 -0.192471 -0.684209
v 0.660580 -0.386958 -0.660579
v 0.595045 -0.562286 -0.595045
v 0.509598 -0.720681 -0.509598
v 0.392460 -0.830648 -0.392459
v 0.268331 -0.916139 -0.268331
v 0.139934 -0.994894 -0.139933
v 0.163183 0.986654 -0.109035
v 0.322641 0.936802 -0.215581
v 0.466774 0.840171 -0.311888
v 0.581762 0.699679 -0.388720
v 0.695717 0.559086 -0.464864
v 0.777868 0.387510 -0.519755
v 0.806438 0.192924 -0.538845
v 0.840986 0.000000 -0.561928
v 0.829741 -0.198499 -0.554415
v 0.752003 -0.374625 -0.502472
v 0.682707 -0.548631 -0.456170
v 0.580157 -0.697748 -0.387648
v 0.444985 -0.800952 -0.297329
v 0.318616 -0.925117 -0.212892
v 0.165096 -0.998220 -0.110313
v 0.000000 -0.997842 0.000000
v 0.183873 1.000553 -0.076163
v 0.345295 0.902297 -0.143025
v 0.519814 0.842055 -0.215314
v 0.664255 0.718984 -0.275143
v 0.760444 0.549977 -0.314986
v 0.856510 0.384008 -0.354777
v 0.881411 0.189768 -0.365092
v 0.908942 0.000000 -0.376495
v 0.903789 -0.194586 -0.374361
v 0.854040 -0.382901 -0.353754
v 0.780091 -0.564186 -0.323124
v 0.651008 -0.704646 -0.269656
v 0.513725 -0.832191 -0.212791
v 0.352100 -0.920082 -0.145844
v 0.185738 -1.010705 -0.076936
v 0.188804 0.967774 -0.037555
v 0.368513 0.907098 -0.073302
v 0.550240 0.839626 -0.109449
v 0.682104 0.695467 -0.135678
v 0.827319 0.563627 -0.164563
v 0.898721 0.379555 -0.178767
v 0.984065 0.199577 -0.195742
v 0.956243 0.000000 -0.190208
v 0.952906 -0.193258 -0.189544
v 0.901490 -0.380724 -0.179317
v 0.815274 -0.555421 -0.162167
v 0.687918 -0.701395 -0.136835
v 0.563544 -0.859928 -0.112096
v 0.373591 -0.919599 -0.074312
v 0.189219 -0.969905 -0.037638
v 0.194091 0.975756 0.000000
v 0.390056 0.941678 0.000000
v 0.550792 0.824319 0.000000
v 0.699455 0.699455 0.000000
v 0.815998 0.545232 0.000000
v 0.907725 0.375991 0.000000
v 0.957817 0.190521 0.000000
v 0.990004 0.000000 0.000000
v 0.979043 -0.194744 0.000000
v 0.900542 -0.373016 0.000000
v 0.831229 -0.555409 0.000000
v 0.703251 -0.703251 0.000000
v 0.553176 -0.827887 0.000000
v 0.382752 -0.924044 0.000000
v 0.191897 -0.964731 0.000000
v 0.191210 0.980108 0.038035
v 0.367531 0.904680 0.073107
v 0.555259 0.847285 0.110449
v 0.678779 0.692077 0.135018
v 0.800471 0.545336 0.159224
v 0.890657 0.376149 0.177163
v 0.978999 0.198550 0.194735
v 0.968786 0.000000 0.192704
v 0.952021 -0.193078 0.189369
v 0.907505 -0.383265 0.180514
v 0.832526 -0.567174 0.165600
v 0.689821 -0.703336 0.137214
v 0.543540 -0.829402 0.108117
v 0.369118 -0.908589 0.073422
v 0.193814 -0.993454 0.038553
v 0.178269 0.970061 0.073842
v 0.361344 0.944236 0.149674
v 0.517254 0.837908 0.214254
v 0.637058 0.689546 0.263878
v 0.779553 0.563796 0.322902
v 0.851856 0.381922 0.352851
v 0.916664 0.197359 0.379695
v 0.912733 0.000000 0.378067
v 0.901570 -0.194109 0.373443
v 0.857975 -0.384665 0.355385
v 0.759947 -0.549617 0.314780
v 0.642178 -0.695088 0.265999
v 0.506209 -0.820016 0.209679
v 0.360741 -0.942663 0.149424
v 0.182862 -0.995051 0.075744
v 0.162726 0.983894 0.108731
v 0.328929 0.955061 0.219783
v 0.464893 0.836785 0.310632
v 0.587392 0.706450 0.392483
v 0.699492 0.562119 0.467385
v 0.778906 0.388028 0.520448
v 0.833930 0.199501 0.557214
v 0.822288 0.000000 0.549436
v 0.818194 -0.195736 0.546700
v 0.761862 -0.379537 0.509060
v 0.709173 -0.569900 0.473855
v 0.591655 -0.711578 0.395332
v 0.467036 -0.840643 0.312064
v 0.329237 -0.955955 0.219989
v 0.159872 -0.966638 0.106824
v 0.141194 1.003849 0.141194
v 0.279533 0.954385 0.279534
v 0.388159 0.821547 0.388159
v 0.488694 0.691118 0.488694
v 0.603921 0.570673 0.603921
v 0.656398 0.384508 0.656398
v 0.697457 0.196198 0.697457
v 0.688348 0.000000 0.688348
v 0.671258 -0.188828 0.671258
v 0.665223 -0.389678 0.665223
v 0.581784 -0.549755 0.581784
v 0.490784 -0.694074 0.490784
v 0.388536 -0.822344 0.388536
v 0.270768 -0.924459 0.270768
v 0.140492 -0.998861 0.140492
v 0.110231 0.997479 0.164973
v 0.216654 0.941463 0.324246
v 0.310101 0.835358 0.464100
v 0.392834 0.707082 0.587917
v 0.459272 0.552362 0.687349
v 0.508435 0.379071 0.760928
v 0.551778 0.197554 0.825794
v 0.552257 0.000000 0.826512
v 0.538549 -0.192818 0.805995
v 0.500720 -0.373318 0.749380
v 0.463477 -0.557419 0.693643
v 0.387652 -0.697754 0.580161
v 0.309539 -0.833844 0.463259
v 0.211261 -0.918026 0.316174
v 0.108756 -0.984131 0.162765
v 0.074918 0.984196 0.180867
v 0.146971 0.927188 0.354820
v 0.213704 0.835757 0.515926
v 0.271567 0.709639 0.655621
v 0.317475 0.554322 0.766453
v 0.352765 0.381830 0.851652
v 0.369594 0.192108 0.892280
v 0.386647 0.000000 0.933449
v 0.371716 -0.193212 0.897403
v 0.347730 -0.376380 0.839495
v 0.316308 -0.552285 0.763636
v 0.275110 -0.718896 0.664174
v 0.208222 -0.814316 0.502691
v 0.149795 -0.945002 0.361637
v 0.075826 -0.996135 0.183061
v 0.037865 0.975754 0.190360
v 0.073796 0.913209 0.370996
v 0.111718 0.857034 0.561649
v 0.138556 0.710214 0.696567
v 0.166292 0.569543 0.836004
v 0.182856 0.388236 0.919277
v 0.186688 0.190344 0.938540
v 0.196137 0.000000 0.986048
v 0.192599 -0.196372 0.968259
v 0.177668 -0.377221 0.893195
v 0.167285 -0.572945 0.840997
v 0.133645 -0.685040 0.671877
v 0.111671 -0.856669 0.561409
v 0.073930 -0.914869 0.371670
v 0.037939 -0.977674 0.190735
v -0.000000 0.981339 0.195201
v 0.000000 0.941738 0.390081
v 0.000000 0.825198 0.551380
v -0.000000 0.697918 0.697918
v -0.000000 0.558981 0.836575
v 0.000000 0.380904 0.919586
v -0.000000 0.194926 0.979961
v -0.000000 0.000000 1.002877
v -0.000000 -0.193660 0.973597
v 0.000000 -0.394015 0.951238
v -0.000000 -0.560036 0.838154
v -0.000000 -0.723633 0.723633
v -0.000000 -0.831838 0.555816
v 0.000000 -0.922663 0.382180
v 0.000000 -1.007693 0.200443
v -0.038099 0.981780 0.191536
v -0.074457 0.921396 0.374322
v -0.108830 0.834876 0.547128
v -0.140386 0.719593 0.705766
v -0.165614 0.567222 0.832597
v -0.176169 0.374039 0.885661
v -0.199217 0.203120 1.001532
v -0.192487 0.000000 0.967700
v -0.193642 -0.197435 0.973501
v -0.174817 -0.371170 0.878866
v -0.157210 -0.538438 0.790345
v -0.140254 -0.718916 0.705102
v -0.107045 -0.821180 0.538151
v -0.076742 -0.949674 0.385810
v -0.036730 -0.946521 0.184657
v -0.076399 1.003656 0.184443
v -0.147014 0.927454 0.354922
v -0.209495 0.819295 0.505764
v -0.276384 0.722227 0.667251
v -0.308457 0.538576 0.744681
v -0.345008 0.373434 0.832924
v -0.375806 0.195338 0.907277
v -0.376884 0.000000 0.909877
v -0.376732 -0.195819 0.909512
v -0.348388 -0.377093 0.841085
v -0.315117 -0.550204 0.760759
v -0.269195 -0.703441 0.649895
v -0.217256 -0.849649 0.524502
v -0.149104 -0.940642 0.359969
v -0.076340 -1.002885 0.184301
v -0.000000 0.979630 0.000001
v -0.106438 0.963154 0.159296
v -0.212744 0.924470 0.318393
v -0.312467 0.841731 0.467641
v -0.404131 0.727417 0.604825
v -0.453252 0.545121 0.678339
v -0.524398 0.390972 0.784817
v -0.537924 0.192594 0.805060
v -0.552013 0.000000 0.826147
v -0.540163 -0.193396 0.808411
v -0.523039 -0.389959 0.782783
v -0.470359 -0.565695 0.703941
v -0.401931 -0.723458 0.601534
v -0.308637 -0.831412 0.461908
v -0.210040 -0.912726 0.314348
v -0.110167 -0.996899 0.164877
v -0.138010 0.981211 0.138010
v -0.273579 0.934058 0.273579
v -0.387720 0.820616 0.387720
v -0.503085 0.711470 0.503085
v -0.582248 0.550194 0.582248
v -0.666645 0.390511 0.666646
v -0.677684 0.190635 0.677684
v -0.690417 0.000000 0.690417
v -0.698741 -0.196559 0.698741
v -0.662528 -0.388100 0.662529
v -0.580809 -0.548834 0.580809
v -0.502224 -0.710252 0.502224
v -0.385332 -0.815563 0.385333
v -0.265890 -0.907805 0.265890
v -0.138517 -0.984815 0.138517
v -0.164691 0.995771 0.110043
v -0.319912 0.928881 0.213759
v -0.467758 0.841942 0.312546
v -0.602308 0.724390 0.402450
v -0.676071 0.543298 0.451736
v -0.773013 0.385091 0.516510
v -0.821818 0.196603 0.549121
v -0.830625 0.000000 0.555005
v -0.816811 -0.195405 0.545775
v -0.738991 -0.368143 0.493778
v -0.679467 -0.546027 0.454005
v -0.589494 -0.708979 0.393888
v -0.459953 -0.827894 0.307330
v -0.323060 -0.938020 0.215862
v -0.163492 -0.988523 0.109242
v -0.179016 0.974124 0.074151
v -0.352282 0.920560 0.145921
v -0.509483 0.825320 0.211035
v -0.642899 0.695870 0.266298
v -0.765645 0.553739 0.317141
v -0.839331 0.376307 0.347663
v -0.882654 0.190036 0.365607
v -0.923228 0.000000 0.382414
v -0.910866 -0.196110 0.377293
v -0.844237 -0.378506 0.349695
v -0.764640 -0.553012 0.316725
v -0.658005 -0.712220 0.272555
v -0.515732 -0.835442 0.213624
v -0.356894 -0.932610 0.147831
v -0.181867 -0.989637 0.075332
v -0.195653 1.002882 0.038919
v -0.379006 0.932929 0.075389
v -0.552858 0.843620 0.109971
v -0.678782 0.692080 0.135018
v -0.802708 0.546860 0.159669
v -0.934457 0.394647 0.185875
v -0.961418 0.194984 0.191238
v -0.999888 0.000000 0.198890
v -0.959078 -0.194510 0.190773
v -0.888747 -0.375343 0.176783
v -0.825653 -0.562492 0.164233
v -0.679997 -0.693319 0.135260
v -0.561652 -0.857040 0.111720
v -0.372635 -0.917246 0.074122
v -0.189292 -0.970275 0.037653
v -0.192549 0.968012 0.000000
v -0.376671 0.909366 0.000000
v -0.554475 0.829831 0.000000
v -0.731849 0.731849 0.000000
v -0.851845 0.569185 0.000000
v -0.938077 0.388564 0.000000
v -0.960102 0.190976 0.000000
v -0.999024 0.000000 0.000000
v -0.972234 -0.193389 0.000000
v -0.892014 -0.369484 0.000000
v -0.839822 -0.561152 0.000000
v -0.710389 -0.710389 0.000000
v -0.570708 -0.854125 0.000000
v -0.395174 -0.954037 0.000000
v -0.195905 -0.984883 0.000000
v -0.189535 0.971522 -0.037701
v -0.376262 0.926173 -0.074843
v -0.537130 0.819622 -0.106842
v -0.690735 0.704267 -0.137395
v -0.799683 0.544799 -0.159066
v -0.922366 0.389541 -0.183470
v -0.981096 0.198975 -0.195153
v -0.987585 0.000000 -0.196443
v -0.974458 -0.197629 -0.193832
v -0.883841 -0.373271 -0.175807
v -0.815749 -0.555744 -0.162262
v -0.679075 -0.692379 -0.135076
v -0.541273 -0.825943 -0.107666
v -0.386291 -0.950861 -0.076838
v -0.196025 -1.004789 -0.038992
v -0.179966 0.979294 -0.074545
v -0.354784 0.927097 -0.146956
v -0.499874 0.809754 -0.207054
v -0.641345 0.694187 -0.265654
v -0.781701 0.565351 -0.323791
v -0.845457 0.379053 -0.350199
v -0.874922 0.188372 -0.362404
v -0.939946 0.000000 -0.389338
v -0.927012 -0.199587 -0.383981
v -0.836490 -0.375033 -0.346485
v -0.752717 -0.544389 -0.311785
v -0.643359 -0.696367 -0.266488
v -0.523328 -0.847746 -0.216769
v -0.361570 -0.944829 -0.149767
v -0.180134 -0.980211 -0.074613
v -0.162050 0.979808 -0.108278
v -0.314590 0.913428 -0.210202
v -0.462327 0.832167 -0.308917
v -0.594315 0.714776 -0.397108
v -0.682418 0.548400 -0.455977
v -0.759655 0.378437 -0.507585
v -0.845880 0.202359 -0.565199
v -0.842031 0.000000 -0.562628
v -0.815930 -0.195195 -0.545187
v -0.755616 -0.376425 -0.504887
v -0.683118 -0.548962 -0.456444
v -0.579162 -0.696552 -0.386983
v -0.472966 -0.851317 -0.316026
v -0.309751 -0.899380 -0.206969
v -0.159783 -0.966101 -0.106763
v -0.137722 0.979165 -0.137721
v -0.264736 0.903865 -0.264736
v -0.392578 0.830900 -0.392578
v -0.496074 0.701554 -0.496074
v -0.602910 0.569719 -0.602910
v -0.664904 0.389492 -0.664904
v -0.699600 0.196801 -0.699600
v -0.698972 0.000000 -0.698972
v -0.709450 -0.199572 -0.709450
v -0.633705 -0.371216 -0.633705
v -0.588569 -0.556167 -0.588569
v -0.495104 -0.700184 -0.495104
v -0.392607 -0.830962 -0.392607
v -0.276307 -0.943370 -0.276307
v -0.141856 -1.008554 -0.141855
v -0.108470 0.981548 -0.162337
v -0.210500 0.914723 -0.315035
v -0.303299 0.817034 -0.453919
v -0.390706 0.703254 -0.584733
v -0.457191 0.549860 -0.684236
v -0.516806 0.385312 -0.773454
v -0.538378 0.192757 -0.805739
v -0.533500 0.000000 -0.798439
v -0.544604 -0.194986 -0.815057
v -0.504972 -0.376489 -0.755743
v -0.466626 -0.561207 -0.698355
v -0.393751 -0.708734 -0.589290
v -0.303374 -0.817235 -0.454030
v -0.216057 -0.938872 -0.323352
v -0.108079 -0.978009 -0.161752
v -0.074920 0.984227 -0.180873
v -0.147266 0.929050 -0.355531
v -0.212604 0.831460 -0.513274
v -0.275683 0.720394 -0.665556
v -0.318955 0.556907 -0.770025
v -0.352801 0.381870 -0.851739
v -0.376268 0.195578 -0.908392
v -0.371639 0.000000 -0.897216
v -0.364167 -0.189288 -0.879177
v -0.346001 -0.374509 -0.835322
v -0.322260 -0.562679 -0.778006
v -0.281421 -0.735389 -0.679411
v -0.211000 -0.825185 -0.509399
v -0.147133 -0.928217 -0.355213
v -0.076284 -1.002145 -0.184165
v -0.037852 0.975437 -0.190299
v -0.074567 0.922757 -0.374874
v -0.109312 0.838573 -0.549550
v -0.139376 0.714416 -0.700688
v -0.160367 0.549254 -0.806221
v -0.185720 0.394318 -0.933676
v -0.187218 0.190886 -0.941209
v -0.193621 0.000000 -0.973402
v -0.188344 -0.192035 -0.946874
v -0.176466 -0.374671 -0.887155
v -0.161489 -0.553098 -0.811863
v -0.139529 -0.715202 -0.701460
v -0.111419 -0.854739 -0.560144
v -0.073955 -0.915177 -0.371794
v -0.037647 -0.970150 -0.189266
v 0.000000 0.967781 -0.192503
v 0.000000 0.919811 -0.380998
v 0.000000 0.819601 -0.547639
v 0.000000 0.707624 -0.707623
v 0.000000 0.545282 -0.816072
v 0.000000 0.388884 -0.938850
v 0.000000 0.199076 -1.000825
v 0.000000 0.000000 -0.992794
v 0.000000 -0.194590 -0.978272
v 0.000000 -0.380681 -0.919046
v 0.000000 -0.550098 -0.823280
v 0.000000 -0.716378 -0.716377
v 0.000000 -0.840482 -0.561592
v 0.000000 -0.932579 -0.386286
v 0.000000 -0.986415 -0.196210
vn 0.0000 0.7040 -0.7101
vn 0.0000 0.8286 -0.5598
vn 0.1092 0.8286 -0.5490
vn 0.1385 0.7040 -0.6965
vn 0.0000 -0.7040 -0.7101
vn 0.0000 -0.5528 -0.8333
vn 0.1626 -0.5528 -0.8173
vn 0.1385 -0.7040 -0.6965
vn 0.0000 0.5528 -0.8333
vn 0.1626 0.5528 -0.8173
vn 0.0000 -0.8286 -0.5598
vn 0.1092 -0.8286 -0.5490
vn 0.0000 0.3805 -0.9247
vn 0.1804 0.3805 -0.9070
vn 0.0000 -0.9217 -0.3879
vn 0.0757 -0.9217 -0.3804
vn 0.0000 0.1939 -0.9810
vn 0.1914 0.1939 -0.9622
vn 0.0000 -0.9796 -0.2010
vn 0.0392 -0.9796 -0.1971
vn 0.0000 0.0000 -1.0000
vn 0.1951 0.0000 -0.9808
vn 0.0000 0.9796 -0.2010
vn 0.0000 1.0000 0.0000
vn 0.0392 0.9796 -0.1971
vn 0.0000 -1.0000 0.0000
vn 0.0000 -0.1939 -0.9810
vn 0.1914 -0.1939 -0.9622
vn 0.0000 0.9217 -0.3879
vn 0.0757 0.9217 -0.3804
vn 0.0000 -0.3805 -0.9247
vn 0.1804 -0.3805 -0.9070
vn 0.3754 -0.1939 -0.9063
vn 0.3539 -0.3805 -0.8544
vn 0.1484 0.9217 -0.3583
vn 0.2142 0.8286 -0.5171
vn 0.3189 -0.5528 -0.7699
vn 0.2717 0.7040 -0.6561
vn 0.2717 -0.7040 -0.6561
vn 0.3189 0.5528 -0.7699
vn 0.2142 -0.8286 -0.5171
vn 0.3539 0.3805 -0.8544
vn 0.1484 -0.9217 -0.3583
vn 0.3754 0.1939 -0.9063
vn 0.0769 -0.9796 -0.1856
vn 0.3827 0.0000 -0.9239
vn 0.0769 0.9796 -0.1856
vn 0.3110 -0.8286 -0.4654
vn 0.2155 -0.9217 -0.3225
vn 0.5137 0.3805 -0.7689
vn 0.5450 0.1939 -0.8157
vn 0.1116 -0.9796 -0.1671
vn 0.5556 0.0000 -0.8314
vn 0.1116 0.9796 -0.1671
vn 0.5450 -0.1939 -0.8157
vn 0.2155 0.9217 -0.3225
vn 0.5137 -0.3805 -0.7689
vn 0.3110 0.8286 -0.4654
vn 0.4630 -0.5528 -0.6929
vn 0.3945 0.7040 -0.5904
vn 0.3945 -0.7040 -0.5904
vn 0.4630 0.5528 -0.6929
vn 0.6539 -0.3805 -0.6539
vn 0.5893 -0.5528 -0.5893
vn 0.3958 0.8286 -0.3958
vn 0.5021 0.7040 -0.5021
vn 0.5021 -0.7040 -0.5021
vn 0.5893 0.5528 -0.5893
vn 0.3958 -0.8286 -0.3958
vn 0.6539 0.3805 -0.6539
vn 0.2743 -0.9217 -0.2743
vn 0.6937 0.1939 -0.6937
vn 0.1421 -0.9796 -0.1421
vn 0.7071 0.0000 -0.7071
vn 0.1421 0.9796 -0.1421
vn 0.6937 -0.1939 -0.6937
vn 0.2743 0.9217 -0.2743
vn 0.3225 -0.9217 -0.2155
vn 0.1671 -0.9796 -0.1116
vn 0.8157 0.1939 -0.5450
vn 0.8314 0.0000 -0.5556
vn 0.1671 0.9796 -0.1116
vn 0.8157 -0.1939 -0.5450
vn 0.3225 0.9217 -0.2155
vn 0.7689 -0.3805 -0.5137
vn 0.4654 0.8286 -0.3110
vn 0.6929 -0.5528 -0.4630
vn 0.5904 0.7040 -0.3945
vn 0.5904 -0.7040 -0.3945
vn 0.6929 0.5528 -0.4630
vn 0.4654 -0.8286 -0.3110
vn 0.7689 0.3805 -0.5137
vn 0.5171 0.8286 -0.2142
vn 0.6561 0.7040 -0.2717
vn 0.7699 -0.5528 -0.3189
vn 0.6561 -0.7040 -0.2717
vn 0.7699 0.5528 -0.3189
vn 0.5171 -0.8286 -0.2142
vn 0.8544 0.3805 -0.3539
vn 0.3583 -0.9217 -0.1484
vn 0.9063 0.1939 -0.3754
vn 0.1856 -0.9796 -0.0769
vn 0.9239 0.0000 -0.3827
vn 0.1856 0.9796 -0.0769
vn 0.9063 -0.1939 -0.3754
vn 0.3583 0.9217 -0.1484
vn 0.8544 -0.3805 -0.3539
vn 0.9622 0.1939 -0.1914
vn 0.9808 0.0000 -0.1951
vn 0.1971 0.9796 -0.0392
vn 0.1971 -0.9796 -0.0392
vn 0.9622 -0.1939 -0.1914
vn 0.3804 0.9217 -0.0757
vn 0.9070 -0.3805 -0.1804
vn 0.5490 0.8286 -0.1092
vn 0.8173 -0.5528 -0.1626
vn 0.6965 0.7040 -0.1385
vn 0.6965 -0.7040 -0.1385
vn 0.8173 0.5528 -0.1626
vn 0.5490 -0.8286 -0.1092
vn 0.9070 0.3805 -0.1804
vn 0.3804 -0.9217 -0.0757
vn 0.8333 -0.5528 0.0000
vn 0.7101 -0.7040 0.0000
vn 0.7101 0.7040 0.0000
vn 0.8333 0.5528 0.0000
vn 0.5598 -0.8286 0.0000
vn 0.9247 0.3805 0.0000
vn 0.3879 -0.9217 0.0000
vn 0.9810 0.1939 0.0000
vn 0.2010 -0.9796 0.0000
vn 1.0000 0.0000 0.0000
vn 0.2010 0.9796 0.0000
vn 0.9810 -0.1939 0.0000
vn 0.3879 0.9217 0.0000
vn 0.9247 -0.3805 0.0000
vn 0.5598 0.8286 0.0000
vn 0.1971 0.9796 0.0392
vn 0.1971 -0.9796 0.0392
vn 0.9808 0.0000 0.1951
vn 0.9622 -0.1939 0.1914
vn 0.3804 0.9217 0.0757
vn 0.9070 -0.3805 0.1804
vn 0.5490 0.8286 0.1092
vn 0.8173 -0.5528 0.1626
vn 0.6965 0.7040 0.1385
vn 0.6965 -0.7040 0.1385
vn 0.8173 0.5528 0.1626
vn 0.5490 -0.8286 0.1092
vn 0.9070 0.3805 0.1804
vn 0.3804 -0.9217 0.0757
vn 0.9622 0.1939 0.1914
vn 0.6561 0.7040 0.2717
vn 0.7699 0.5528 0.3189
vn 0.6561 -0.7040 0.2717
vn 0.5171 -0.8286 0.2142
vn 0.8544 0.3805 0.3539
vn 0.3583 -0.9217 0.1484
vn 0.9063 0.1939 0.3754
vn 0.1856 -0.9796 0.0769
vn 0.9239 0.0000 0.3827
vn 0.1856 0.9796 0.0769
vn 0.9063 -0.1939 0.3754
vn 0.3583 0.9217 0.1484
vn 0.8544 -0.3805 0.3539
vn 0.5171 0.8286 0.2142
vn 0.7699 -0.5528 0.3189
vn 0.8314 0.0000 0.5556
vn 0.8157 -0.1939 0.5450
vn 0.1671 0.9796 0.1116
vn 0.3225 0.9217 0.2155
vn 0.7689 -0.3805 0.5137
vn 0.4654 0.8286 0.3110
vn 0.6929 -0.5528 0.4630
vn 0.5904 0.7040 0.3945
vn 0.5904 -0.7040 0.3945
vn 0.6929 0.5528 0.4630
vn 0.4654 -0.8286 0.3110
vn 0.7689 0.3805 0.5137
vn 0.3225 -0.9217 0.2155
vn 0.8157 0.1939 0.5450
vn 0.1671 -0.9796 0.1116
vn 0.5021 -0.7040 0.5021
vn 0.3958 -0.8286 0.3958
vn 0.5893 0.5528 0.5893
vn 0.6539 0.3805 0.6539
vn 0.2743 -0.9217 0.2743
vn 0.6937 0.1939 0.6937
vn 0.1421 -0.9796 0.1421
vn 0.7071 0.0000 0.7071
vn 0.1421 0.9796 0.1421
vn 0.6937 -0.1939 0.6937
vn 0.2743 0.9217 0.2743
vn 0.6539 -0.3805 0.6539
vn 0.3958 0.8286 0.3958
vn 0.5893 -0.5528 0.5893
vn 0.5021 0.7040 0.5021
vn 0.5450 -0.1939 0.8157
vn 0.5137 -0.3805 0.7689
vn 0.2155 0.9217 0.3225
vn 0.3110 0.8286 0.4654
vn 0.4630 -0.5528 0.6929
vn 0.3945 0.7040 0.5904
vn 0.3945 -0.7040 0.5904
vn 0.4630 0.5528 0.6929
vn 0.3110 -0.8286 0.4654
vn 0.5137 0.3805 0.7689
vn 0.2155 -0.9217 0.3225
vn 0.5450 0.1939 0.8157
vn 0.1116 -0.9796 0.1671
vn 0.5556 0.0000 0.8314
vn 0.1116 0.9796 0.1671
vn 0.2142 -0.8286 0.5171
vn 0.1484 -0.9217 0.3583
vn 0.3539 0.3805 0.8544
vn 0.3754 0.1939 0.9063
vn 0.0769 -0.9796 0.1856
vn 0.3827 0.0000 0.9239
vn 0.0769 0.9796 0.1856
vn 0.3754 -0.1939 0.9063
vn 0.1484 0.9217 0.3583
vn 0.3539 -0.3805 0.8544
vn 0.2142 0.8286 0.5171
vn 0.3189 -0.5528 0.7699
vn 0.2717 0.7040 0.6561
vn 0.2717 -0.7040 0.6561
vn 0.3189 0.5528 0.7699
vn 0.0757 0.9217 0.3804
vn 0.1092 0.8286 0.5490
vn 0.1804 -0.3805 0.9070
vn 0.1626 -0.5528 0.8173
vn 0.1385 0.7040 0.6965
vn 0.1385 -0.7040 0.6965
vn 0.1626 0.5528 0.8173
vn 0.1092 -0.8286 0.5490
vn 0.1804 0.3805 0.9070
vn 0.0757 -0.9217 0.3804
vn 0.1914 0.1939 0.9622
vn 0.0392 -0.9796 0.1971
vn 0.1951 0.0000 0.9808
vn 0.0392 0.9796 0.1971
vn 0.1914 -0.1939 0.9622
vn 0.0000 0.3805 0.9247
vn 0.0000 0.1939 0.9810
vn 0.0000 -0.9217 0.3879
vn 0.0000 -0.9796 0.2010
vn 0.0000 0.0000 1.0000
vn 0.0000 0.9796 0.2010
vn 0.0000 -0.1939 0.9810
vn 0.0000 0.9217 0.3879
vn 0.0000 -0.3805 0.9247
vn 0.0000 0.8286 0.5598
vn 0.0000 -0.5528 0.8333
vn 0.0000 0.7040 0.7101
vn 0.0000 -0.7040 0.7101
vn 0.0000 0.5528 0.8333
vn 0.0000 -0.8286 0.5598
vn -0.1804 -0.3805 0.9070
vn -0.1626 -0.5528 0.8173
vn -0.1092 0.8286 0.5490
vn -0.1385 0.7040 0.6965
vn -0.1385 -0.7040 0.6965
vn -0.1626 0.5528 0.8173
vn -0.1092 -0.8286 0.5490
vn -0.1804 0.3805 0.9070
vn -0.0757 -0.9217 0.3804
vn -0.1914 0.1939 0.9622
vn -0.0392 -0.9796 0.1971
vn -0.1951 0.0000 0.9808
vn -0.0392 0.9796 0.1971
vn -0.1914 -0.1939 0.9622
vn -0.0757 0.9217 0.3804
vn -0.1484 -0.9217 0.3583
vn -0.0769 -0.9796 0.1856
vn -0.3754 0.1939 0.9063
vn -0.3827 0.0000 0.9239
vn -0.0769 0.9796 0.1856
vn -0.3754 -0.1939 0.9063
vn -0.1484 0.9217 0.3583
vn -0.3539 -0.3805 0.8544
vn -0.2142 0.8286 0.5171
vn -0.3189 -0.5528 0.7699
vn -0.2717 0.7040 0.6561
vn -0.2717 -0.7040 0.6561
vn -0.3189 0.5528 0.7699
vn -0.2142 -0.8286 0.5171
vn -0.3539 0.3805 0.8544
vn -0.3110 0.8286 0.4654
vn -0.3945 0.7040 0.5904
vn -0.4630 -0.5528 0.6929
vn -0.3945 -0.7040 0.5904
vn -0.4630 0.5528 0.6929
vn -0.3110 -0.8286 0.4654
vn -0.5137 0.3805 0.7689
vn -0.2155 -0.9217 0.3225
vn -0.5450 0.1939 0.8157
vn -0.1116 -0.9796 0.1671
vn -0.5556 0.0000 0.8314
vn -0.1116 0.9796 0.1671
vn -0.5450 -0.1939 0.8157
vn -0.2155 0.9217 0.3225
vn -0.5137 -0.3805 0.7689
vn -0.6937 0.1939 0.6937
vn -0.7071 0.0000 0.7071
vn -0.1421 0.9796 0.1421
vn -0.1421 -0.9796 0.1421
vn -0.6937 -0.1939 0.6937
vn -0.2743 0.9217 0.2743
vn -0.6539 -0.3805 0.6539
vn -0.3958 0.8286 0.3958
vn -0.5893 -0.5528 0.5893
vn -0.5021 0.7040 0.5021
vn -0.5021 -0.7040 0.5021
vn -0.5893 0.5528 0.5893
vn -0.3958 -0.8286 0.3958
vn -0.6539 0.3805 0.6539
vn -0.2743 -0.9217 0.2743
vn -0.6929 -0.5528 0.4630
vn -0.5904 -0.7040 0.3945
vn -0.5904 0.7040 0.3945
vn -0.6929 0.5528 0.4630
vn -0.4654 -0.8286 0.3110
vn -0.7689 0.3805 0.5137
vn -0.3225 -0.9217 0.2155
vn -0.8157 0.1939 0.5450
vn -0.1671 -0.9796 0.1116
vn -0.8314 0.0000 0.5556
vn -0.1671 0.9796 0.1116
vn -0.8157 -0.1939 0.5450
vn -0.3225 0.9217 0.2155
vn -0.7689 -0.3805 0.5137
vn -0.4654 0.8286 0.3110
vn -0.1856 -0.9796 0.0769
vn -0.9239 0.0000 0.3827
vn -0.9063 -0.1939 0.3754
vn -0.1856 0.9796 0.0769
vn -0.3583 0.9217 0.1484
vn -0.8544 -0.3805 0.3539
vn -0.5171 0.8286 0.2142
vn -0.7699 -0.5528 0.3189
vn -0.6561 0.7040 0.2717
vn -0.6561 -0.7040 0.2717
vn -0.7699 0.5528 0.3189
vn -0.5171 -0.8286 0.2142
vn -0.8544 0.3805 0.3539
vn -0.3583 -0.9217 0.1484
vn -0.9063 0.1939 0.3754
vn -0.6965 -0.7040 0.1385
vn -0.5490 -0.8286 0.1092
vn -0.8173 0.5528 0.1626
vn -0.9070 0.3805 0.1804
vn -0.3804 -0.9217 0.0757
vn -0.9622 0.1939 0.1914
vn -0.1971 -0.9796 0.0392
vn -0.9808 0.0000 0.1951
vn -0.1971 0.9796 0.0392
vn -0.9622 -0.1939 0.1914
vn -0.3804 0.9217 0.0757
vn -0.9070 -0.3805 0.1804
vn -0.5490 0.8286 0.1092
vn -0.8173 -0.5528 0.1626
vn -0.6965 0.7040 0.1385
vn -0.2010 0.9796 0.0000
vn -0.3879 0.9217 0.0000
vn -0.9810 -0.1939 0.0000
vn -0.9247 -0.3805 0.0000
vn -0.5598 0.8286 0.0000
vn -0.8333 -0.5528 0.0000
vn -0.7101 0.7040 0.0000
vn -0.7101 -0.7040 0.0000
vn -0.8333 0.5528 0.0000
vn -0.5598 -0.8286 0.0000
vn -0.9247 0.3805 0.0000
vn -0.3879 -0.9217 0.0000
vn -0.9810 0.1939 0.0000
vn -0.2010 -0.9796 0.0000
vn -1.0000 0.0000 0.0000
vn -0.8173 0.5528 -0.1626
vn -0.9070 0.3805 -0.1804
vn -0.5490 -0.8286 -0.1092
vn -0.3804 -0.9217 -0.0757
vn -0.9622 0.1939 -0.1914
vn -0.1971 -0.9796 -0.0392
vn -0.9808 0.0000 -0.1951
vn -0.1971 0.9796 -0.0392
vn -0.9622 -0.1939 -0.1914
vn -0.3804 0.9217 -0.0757
vn -0.9070 -0.3805 -0.1804
vn -0.5490 0.8286 -0.1092
vn -0.8173 -0.5528 -0.1626
vn -0.6965 0.7040 -0.1385
vn -0.6965 -0.7040 -0.1385
vn -0.9063 -0.1939 -0.3754
vn -0.8544 -0.3805 -0.3539
vn -0.3583 0.9217 -0.1484
vn -0.5171 0.8286 -0.2142
vn -0.7699 -0.5528 -0.3189
vn -0.6561 0.7040 -0.2717
vn -0.6561 -0.7040 -0.2717
vn -0.7699 0.5528 -0.3189
vn -0.5171 -0.8286 -0.2142
vn -0.8544 0.3805 -0.3539
vn -0.3583 -0.9217 -0.1484
vn -0.9063 0.1939 -0.3754
vn -0.1856 -0.9796 -0.0769
vn -0.9239 0.0000 -0.3827
vn -0.1856 0.9796 -0.0769
vn -0.4654 -0.8286 -0.3110
vn -0.3225 -0.9217 -0.2155
vn -0.7689 0.3805 -0.5137
vn -0.8157 0.1939 -0.5450
vn -0.1671 -0.9796 -0.1116
vn -0.8314 0.0000 -0.5556
vn -0.1671 0.9796 -0.1116
vn -0.8157 -0.1939 -0.5450
vn -0.3225 0.9217 -0.2155
vn -0.7689 -0.3805 -0.5137
vn -0.4654 0.8286 -0.3110
vn -0.6929 -0.5528 -0.4630
vn -0.5904 0.7040 -0.3945
vn -0.5904 -0.7040 -0.3945
vn -0.6929 0.5528 -0.4630
vn -0.2743 0.9217 -0.2743
vn -0.3958 0.8286 -0.3958
vn -0.6539 -0.3805 -0.6539
vn -0.5893 -0.5528 -0.5893
vn -0.5021 0.7040 -0.5021
vn -0.5021 -0.7040 -0.5021
vn -0.5893 0.5528 -0.5893
vn -0.3958 -0.8286 -0.3958
vn -0.6539 0.3805 -0.6539
vn -0.2743 -0.9217 -0.2743
vn -0.6937 0.1939 -0.6937
vn -0.1421 -0.9796 -0.1421
vn -0.7071 0.0000 -0.7071
vn -0.1421 0.9796 -0.1421
vn -0.6937 -0.1939 -0.6937
vn -0.5137 0.3805 -0.7689
vn -0.5450 0.1939 -0.8157
vn -0.2155 -0.9217 -0.3225
vn -0.1116 -0.9796 -0.1671
vn -0.5556 0.0000 -0.8314
vn -0.1116 0.9796 -0.1671
vn -0.5450 -0.1939 -0.8157
vn -0.2155 0.9217 -0.3225
vn -0.5137 -0.3805 -0.7689
vn -0.3110 0.8286 -0.4654
vn -0.4630 -0.5528 -0.6929
vn -0.3945 0.7040 -0.5904
vn -0.3945 -0.7040 -0.5904
vn -0.4630 0.5528 -0.6929
vn -0.3110 -0.8286 -0.4654
vn -0.3539 -0.3805 -0.8544
vn -0.3189 -0.5528 -0.7699
vn -0.2142 0.8286 -0.5171
vn -0.2717 0.7040 -0.6561
vn -0.2717 -0.7040 -0.6561
vn -0.3189 0.5528 -0.7699
vn -0.2142 -0.8286 -0.5171
vn -0.3539 0.3805 -0.8544
vn -0.1484 -0.9217 -0.3583
vn -0.3754 0.1939 -0.9063
vn -0.0769 -0.9796 -0.1856
vn -0.3827 0.0000 -0.9239
vn -0.0769 0.9796 -0.1856
vn -0.3754 -0.1939 -0.9063
vn -0.1484 0.9217 -0.3583
vn -0.0757 -0.9217 -0.3804
vn -0.0392 -0.9796 -0.1971
vn -0.1914 0.1939 -0.9622
vn -0.1951 0.0000 -0.9808
vn -0.0392 0.9796 -0.1971
vn -0.1914 -0.1939 -0.9622
vn -0.0757 0.9217 -0.3804
vn -0.1804 -0.3805 -0.9070
vn -0.1092 0.8286 -0.5490
vn -0.1626 -0.5528 -0.8173
vn -0.1385 0.7040 -0.6965
vn -0.1385 -0.7040 -0.6965
vn -0.1626 0.5528 -0.8173
vn -0.1092 -0.8286 -0.5490
vn -0.1804 0.3805 -0.9070
f 471//1 470//2 3//3 4//4
f 479//5 478//6 11//7 12//8
f 472//9 471//1 4//4 5//10
f 480//11 479//5 12//8 13//12
f 473//13 472//9 5//10 6//14
f 481//15 480//11 13//12 14//16
f 474//17 473//13 6//14 7//18
f 482//19 481//15 14//16 15//20
f 475//21 474//17 7//18 8//22
f 468//23 272//24 1//25
f 76//26 482//19 15//20
f 476//27 475//21 8//22 9//28
f 469//29 468//23 1//25 2//30
f 477//31 476//27 9//28 10//32
f 470//2 469//29 2//30 3//3
f 478//6 477//31 10//32 11//7
f 10//32 9//28 24//33 25//34
f 3//3 2//30 17//35 18//36
f 11//7 10//32 25//34 26//37
f 4//4 3//3 18//36 19//38
f 12//8 11//7 26//37 27//39
f 5//10 4//4 19//38 20//40
f 13//12 12//8 27//39 28//41
f 6//14 5//10 20//40 21//42
f 14//16 13//12 28//41 29//43
f 7//18 6//14 21//42 22//44
f 15//20 14//16 29//43 30//45
f 8//22 7//18 22//44 23//46
f 1//25 272//24 16//47
f 76//26 15//20 30//45
f 9//28 8//22 23//46 24//33
f 2//30 1//25 16//47 17//35
f 29//43 28//41 43//48 44//49
f 22//44 21//42 36//50 37//51
f 30//45 29//43 44//49 45//52
f 23//46 22//44 37//51 38//53
f 16//47 272//24 31//54
f 76//26 30//45 45//52
f 24//33 23//46 38//53 39//55
f 17//35 16//47 31//54 32//56
f 25//34 24//33 39//55 40//57
f 18//36 17//35 32//56 33//58
f 26//37 25//34 40//57 41//59
f 19//38 18//36 33//58 34//60
f 27//39 26//37 41//59 42//61
f 20//40 19//38 34//60 35//62
f 28//41 27//39 42//61 43//48
f 21//42 20//40 35//62 36//50
f 41//59 40//57 55//63 56//64
f 34//60 33//58 48//65 49//66
f 42//61 41//59 56//64 57//67
f 35//62 34//60 49//66 50//68
f 43//48 42//61 57//67 58//69
f 36//50 35//62 50//68 51//70
f 44//49 43//48 58//69 59//71
f 37//51 36//50 51//70 52//72
f 45//52 44//49 59//71 60//73
f 38//53 37//51 52//72 53//74
f 31//54 272//24 46//75
f 76//26 45//52 60//73
f 39//55 38//53 53//74 54//76
f 32//56 31//54 46//75 47//77
f 40//57 39//55 54//76 55//63
f 33//58 32//56 47//77 48//65
f 60//73 59//71 74//78 75//79
f 53//74 52//72 67//80 68//81
f 46//75 272//24 61//82
f 76//26 60//73 75//79
f 54//76 53//74 68//81 69//83
f 47//77 46//75 61//82 62//84
f 55//63 54//76 69//83 70//85
f 48//65 47//77 62//84 63//86
f 56//64 55//63 70//85 71//87
f 49//66 48//65 63//86 64//88
f 57//67 56//64 71//87 72//89
f 50//68 49//66 64//88 65//90
f 58//69 57//67 72//89 73//91
f 51//70 50//68 65//90 66//92
f 59//71 58//69 73//91 74//78
f 52//72 51//70 66//92 67//80
f 64//88 63//86 79//93 80//94
f 72//89 71//87 87//95 88//96
f 65//90 64//88 80//94 81//97
f 73//91 72//89 88//96 89//98
f 66//92 65//90 81//97 82//99
f 74//78 73//91 89//98 90//100
f 67//80 66//92 82//99 83//101
f 75//79 74//78 90//100 91//102
f 68//81 67//80 83//101 84//103
f 61//82 272//24 77//104
f 76//26 75//79 91//102
f 69//83 68//81 84//103 85//105
f 62//84 61//82 77//104 78//106
f 70//85 69//83 85//105 86//107
f 63//86 62//84 78//106 79//93
f 71//87 70//85 86//107 87//95
f 84//103 83//101 98//108 99//109
f 77//104 272//24 92//110
f 76//26 91//102 106//111
f 85//105 84//103 99//109 100//112
f 78//106 77//104 92//110 93//113
f 86//107 85//105 100//112 101//114
f 79//93 78//106 93//113 94//115
f 87//95 86//107 101//114 102//116
f 80//94 79//93 94//115 95//117
f 88//96 87//95 102//116 103//118
f 81//97 80//94 95//117 96//119
f 89//98 88//96 103//118 104//120
f 82//99 81//97 96//119 97//121
f 90//100 89//98 104//120 105//122
f 83//101 82//99 97//121 98//108
f 91//102 90//100 105//122 106//111
f 103//118 102//116 117//123 118//124
f 96//119 95//117 110//125 111//126
f 104//120 103//118 118//124 119//127
f 97//121 96//119 111//126 112//128
f 105//122 104//120 119//127 120//129
f 98//108 97//121 112//128 113//130
f 106//111 105//122 120//129 121//131
f 99//109 98//108 113//130 114//132
f 92//110 272//24 107//133
f 76//26 106//111 121//131
f 100//112 99//109 114//132 115//134
f 93//113 92//110 107//133 108//135
f 101//114 100//112 115//134 116//136
f 94//115 93//113 108//135 109//137
f 102//116 101//114 116//136 117//123
f 95//117 94//115 109//137 110//125
f 107//133 272//24 122//138
f 76//26 121//131 136//139
f 115//134 114//132 129//140 130//141
f 108//135 107//133 122//138 123//142
f 116//136 115//134 130//141 131//143
f 109//137 108//135 123//142 124//144
f 117//123 116//136 131//143 132//145
f 110//125 109//137 124//144 125//146
f 118//124 117//123 132//145 133//147
f 111//126 110//125 125//146 126//148
f 119//127 118//124 133//147 134//149
f 112//128 111//126 126//148 127//150
f 120//129 119//127 134//149 135//151
f 113//130 112//128 127//150 128//152
f 121//131 120//129 135//151 136//139
f 114//132 113//130 128//152 129//140
f 126//148 125//146 140//153 141//154
f 134//149 133//147 148//155 149//156
f 127//150 126//148 141//154 142//157
f 135//151 134//149 149//156 150//158
f 128//152 127//150 142//157 143//159
f 136//139 135//151 150//158 151//160
f 129//140 128//152 143//159 144//161
f 122//138 272//24 137//162
f 76//26 136//139 151//160
f 130//141 129//140 144//161 145//163
f 123//142 122//138 137//162 138//164
f 131//143 130//141 145//163 146//165
f 124//144 123//142 138//164 139//166
f 132//145 131//143 146//165 147//167
f 125//146 124//144 139//166 140//153
f 133//147 132//145 147//167 148//155
f 145//163 144//161 159//168 160//169
f 138//164 137//162 152//170 153//171
f 146//165 145//163 160//169 161//172
f 139//166 138//164 153//171 154//173
f 147//167 146//165 161//172 162//174
f 140//153 139//166 154//173 155//175
f 148//155 147//167 162//174 163//176
f 141//154 140//153 155//175 156//177
f 149//156 148//155 163//176 164//178
f 142//157 141//154 156//177 157//179
f 150//158 149//156 164//178 165//180
f 143//159 142//157 157//179 158//181
f 151//160 150//158 165//180 166//182
f 144//161 143//159 158//181 159//168
f 137//162 272//24 152//170
f 76//26 151//160 166//182
f 164//178 163//176 178//183 179//184
f 157//179 156//177 171//185 172//186
f 165//180 164//178 179//184 180//187
f 158//181 157//179 172//186 173//188
f 166//182 165//180 180//187 181//189
f 159//168 158//181 173//188 174//190
f 152//170 272//24 167//191
f 76//26 166//182 181//189
f 160//169 159//168 174//190 175//192
f 153//171 152//170 167//191 168//193
f 161//172 160//169 175//192 176//194
f 154//173 153//171 168//193 169//195
f 162//174 161//172 176//194 177//196
f 155//175 154//173 169//195 170//197
f 163//176 162//174 177//196 178//183
f 156//177 155//175 170//197 171//185
f 176//194 175//192 190//198 191//199
f 169//195 168//193 183//200 184//201
f 177//196 176//194 191//199 192//202
f 170//197 169//195 184//201 185//203
f 178//183 177//196 192//202 193//204
f 171//185 170//197 185//203 186//205
f 179//184 178//183 193//204 194//206
f 172//186 171//185 186//205 187//207
f 180//187 179//184 194//206 195//208
f 173//188 172//186 187//207 188//209
f 181//189 180//187 195//208 196//210
f 174//190 173//188 188//209 189//211
f 167//191 272//24 182//212
f 76//26 181//189 196//210
f 175//192 174//190 189//211 190//198
f 168//193 167//191 182//212 183//200
f 195//208 194//206 209//213 210//214
f 188//209 187//207 202//215 203//216
f 196//210 195//208 210//214 211//217
f 189//211 188//209 203//216 204//218
f 182//212 272//24 197//219
f 76//26 196//210 211//217
f 190//198 189//211 204//218 205//220
f 183//200 182//212 197//219 198//221
f 191//199 190//198 205//220 206//222
f 184//201 183//200 198//221 199//223
f 192//202 191//199 206//222 207//224
f 185//203 184//201 199//223 200//225
f 193//204 192//202 207//224 208//226
f 186//205 185//203 200//225 201//227
f 194//206 193//204 208//226 209//213
f 187//207 186//205 201//227 202//215
f 199//223 198//221 213//228 214//229
f 207//224 206//222 221//230 222//231
f 200//225 199//223 214//229 215//232
f 208//226 207//224 222//231 223//233
f 201//227 200//225 215//232 216//234
f 209//213 208//226 223//233 224//235
f 202//215 201//227 216//234 217//236
f 210//214 209//213 224//235 225//237
f 203//216 202//215 217//236 218//238
f 211//217 210//214 225//237 226//239
f 204//218 203//216 218//238 219//240
f 197//219 272//24 212//241
f 76//26 211//217 226//239
f 205//220 204//218 219//240 220//242
f 198//221 197//219 212//241 213//228
f 206//222 205//220 220//242 221//230
f 218//238 217//236 232//243 233//244
f 226//239 225//237 240//245 241//246
f 219//240 218//238 233//244 234//247
f 212//241 272//24 227//248
f 76//26 226//239 241//246
f 220//242 219//240 234//247 235//249
f 213//228 212//241 227//248 228//250
f 221//230 220//242 235//249 236//251
f 214//229 213//228 228//250 229//252
f 222//231 221//230 236//251 237//253
f 215//232 214//229 229//252 230//254
f 223//233 222//231 237//253 238//255
f 216//234 215//232 230//254 231//256
f 224//235 223//233 238//255 239//257
f 217//236 216//234 231//256 232//243
f 225//237 224//235 239//257 240//245
f 237//253 236//251 251//258 252//259
f 230//254 229//252 244//260 245//261
f 238//255 237//253 252//259 253//262
f 231//256 230//254 245//261 246//263
f 239//257 238//255 253//262 254//264
f 232//243 231//256 246//263 247//265
f 240//245 239//257 254//264 255//266
f 233//244 232//243 247//265 248//267
f 241//246 240//245 255//266 256//268
f 234//247 233//244 248//267 249//269
f 227//248 272//24 242//270
f 76//26 241//246 256//268
f 235//249 234//247 249//269 250//271
f 228//250 227//248 242//270 243//272
f 236//251 235//249 250//271 251//258
f 229//252 228//250 243//272 244//260
f 256//268 255//266 270//273 271//274
f 249//269 248//267 263//275 264//276
f 242//270 272//24 257//277
f 76//26 256//268 271//274
f 250//271 249//269 264//276 265//278
f 243//272 242//270 257//277 258//279
f 251//258 250//271 265//278 266//280
f 244//260 243//272 258//279 259//281
f 252//259 251//258 266//280 267//282
f 245//261 244//260 259//281 260//283
f 253//262 252//259 267//282 268//284
f 246//263 245//261 260//283 261//285
f 254//264 253//262 268//284 269//286
f 247//265 246//263 261//285 262//287
f 255//266 254//264 269//286 270//273
f 248//267 247//265 262//287 263//275
f 260//283 259//281 275//288 276//289
f 268//284 267//282 283//290 284//291
f 261//285 260//283 276//289 277//292
f 269//286 268//284 284//291 285//293
f 262//287 261//285 277//292 278//294
f 270//273 269//286 285//293 286//295
f 263//275 262//287 278//294 279//296
f 271//274 270//273 286//295 287//297
f 264//276 263//275 279//296 280//298
f 257//277 272//24 273//299
f 76//26 271//274 287//297
f 265//278 264//276 280//298 281//300
f 258//279 257//277 273//299 274//301
f 266//280 265//278 281//300 282//302
f 259//281 258//279 274//301 275//288
f 267//282 266//280 282//302 283//290
f 280//298 279//296 294//303 295//304
f 273//299 272//24 288//305
f 76//26 287//297 302//306
f 281//300 280//298 295//304 296//307
f 274//301 273//299 288//305 289//308
f 282//302 281//300 296//307 297//309
f 275//288 274//301 289//308 290//310
f 283//290 282//302 297//309 298//311
f 276//289 275//288 290//310 291//312
f 284//291 283//290 298//311 299//313
f 277//292 276//289 291//312 292//314
f 285//293 284//291 299//313 300//315
f 278//294 277//292 292//314 293//316
f 286//295 285//293 300//315 301//317
f 279//296 278//294 293//316 294//303
f 287//297 286//295 301//317 302//306
f 299//313 298//311 313//318 314//319
f 292//314 291//312 306//320 307//321
f 300//315 299//313 314//319 315//322
f 293//316 292//314 307//321 308//323
f 301//317 300//315 315//322 316//324
f 294//303 293//316 308//323 309//325
f 302//306 301//317 316//324 317//326
f 295//304 294//303 309//325 310//327
f 288//305 272//24 303//328
f 76//26 302//306 317//326
f 296//307 295//304 310//327 311//329
f 289//308 288//305 303//328 304//330
f 297//309 296//307 311//329 312//331
f 290//310 289//308 304//330 305//332
f 298//311 297//309 312//331 313//318
f 291//312 290//310 305//332 306//320
f 76//26 317//326 332//333
f 311//329 310//327 325//334 326//335
f 304//330 303//328 318//336 319//337
f 312//331 311//329 326//335 327//338
f 305//332 304//330 319//337 320//339
f 313//318 312//331 327//338 328//340
f 306//320 305//332 320//339 321//341
f 314//319 313//318 328//340 329//342
f 307//321 306//320 321//341 322//343
f 315//322 314//319 329//342 330//344
f 308//323 307//321 322//343 323//345
f 316//324 315//322 330//344 331//346
f 309//325 308//323 323//345 324//347
f 317//326 316//324 331//346 332//333
f 310//327 309//325 324//347 325//334
f 303//328 272//24 318//336
f 330//344 329//342 344//348 345//349
f 323//345 322//343 337//350 338//351
f 331//346 330//344 345//349 346//352
f 324//347 323//345 338//351 339//353
f 332//333 331//346 346//352 347//354
f 325//334 324//347 339//353 340//355
f 318//336 272//24 333//356
f 76//26 332//333 347//354
f 326//335 325//334 340//355 341//357
f 319//337 318//336 333//356 334//358
f 327//338 326//335 341//357 342//359
f 320//339 319//337 334//358 335//360
f 328//340 327//338 342//359 343//361
f 321//341 320//339 335//360 336//362
f 329//342 328//340 343//361 344//348
f 322//343 321//341 336//362 337//350
f 334//358 333//356 348//363 349//364
f 342//359 341//357 356//365 357//366
f 335//360 334//358 349//364 350//367
f 343//361 342//359 357//366 358//368
f 336//362 335//360 350//367 351//369
f 344//348 343//361 358//368 359//370
f 337//350 336//362 351//369 352//371
f 345//349 344//348 359//370 360//372
f 338//351 337//350 352//371 353//373
f 346//352 345//349 360//372 361//374
f 339//353 338//351 353//373 354//375
f 347//354 346//352 361//374 362//376
f 340//355 339//353 354//375 355//377
f 333//356 272//24 348//363
f 76//26 347//354 362//376
f 341//357 340//355 355//377 356//365
f 353//373 352//371 367//378 368//379
f 361//374 360//372 375//380 376//381
f 354//375 353//373 368//379 369//382
f 362//376 361//374 376//381 377//383
f 355//377 354//375 369//382 370//384
f 348//363 272//24 363//385
f 76//26 362//376 377//383
f 356//365 355//377 370//384 371//386
f 349//364 348//363 363//385 364//387
f 357//366 356//365 371//386 372//388
f 350//367 349//364 364//387 365//389
f 358//368 357//366 372//388 373//390
f 351//369 350//367 365//389 366//391
f 359//370 358//368 373//390 374//392
f 352//371 351//369 366//391 367//378
f 360//372 359//370 374//392 375//380
f 372//388 371//386 386//393 387//394
f 365//389 364//387 379//395 380//396
f 373//390 372//388 387//394 388//397
f 366//391 365//389 380//396 381//398
f 374//392 373//390 388//397 389//399
f 367//378 366//391 381//398 382//400
f 375//380 374//392 389//399 390//401
f 368//379 367//378 382//400 383//402
f 376//381 375//380 390//401 391//403
f 369//382 368//379 383//402 384//404
f 377//383 376//381 391//403 392//405
f 370//384 369//382 384//404 385//406
f 363//385 272//24 378//407
f 76//26 377//383 392//405
f 371//386 370//384 385//406 386//393
f 364//387 363//385 378//407 379//395
f 391//403 390//401 405//408 406//409
f 384//404 383//402 398//410 399//411
f 392//405 391//403 406//409 407//412
f 385//406 384//404 399//411 400//413
f 378//407 272//24 393//414
f 76//26 392//405 407//412
f 386//393 385//406 400//413 401//415
f 379//395 378//407 393//414 394//416
f 387//394 386//393 401//415 402//417
f 380//396 379//395 394//416 395//418
f 388//397 387//394 402//417 403//419
f 381//398 380//396 395//418 396//420
f 389//399 388//397 403//419 404//421
f 382//400 381//398 396//420 397//422
f 390//401 389//399 404//421 405//408
f 383//402 382//400 397//422 398//410
f 395//418 394//416 409//423 410//424
f 403//419 402//417 417//425 418//426
f 396//420 395//418 410//424 411//427
f 404//421 403//419 418//426 419//428
f 397//422 396//420 411//427 412//429
f 405//408 404//421 419//428 420//430
f 398//410 397//422 412//429 413//431
f 406//409 405//408 420//430 421//432
f 399//411 398//410 413//431 414//433
f 407//412 406//409 421//432 422//434
f 400//413 399//411 414//433 415//435
f 393//414 272//24 408//436
f 76//26 407//412 422//434
f 401//415 400//413 415//435 416//437
f 394//416 393//414 408//436 409//423
f 402//417 401//415 416//437 417//425
f 414//433 413//431 428//438 429//439
f 422//434 421//432 436//440 437//441
f 415//435 414//433 429//439 430//442
f 408//436 272//24 423//443
f 76//26 422//434 437//441
f 416//437 415//435 430//442 431//444
f 409//423 408//436 423//443 424//445
f 417//425 416//437 431//444 432//446
f 410//424 409//423 424//445 425//447
f 418//426 417//425 432//446 433//448
f 411//427 410//424 425//447 426//449
f 419//428 418//426 433//448 434//450
f 412//429 411//427 426//449 427//451
f 420//430 419//428 434//450 435//452
f 413//431 412//429 427//451 428//438
f 421//432 420//430 435//452 436//440
f 433//448 432//446 447//453 448//454
f 426//449 425//447 440//455 441//456
f 434//450 433//448 448//454 449//457
f 427//451 426//449 441//456 442//458
f 435//452 434//450 449//457 450//459
f 428//438 427//451 442//458 443//460
f 436//440 435//452 450//459 451//461
f 429//439 428//438 443//460 444//462
f 437//441 436//440 451//461 452//463
f 430//442 429//439 444//462 445//464
f 423//443 272//24 438//465
f 76//26 437//441 452//463
f 431//444 430//442 445//464 446//466
f 424//445 423//443 438//465 439//467
f 432//446 431//444 446//466 447//453
f 425//447 424//445 439//467 440//455
f 452//463 451//461 466//468 467//469
f 445//464 444//462 459//470 460//471
f 438//465 272//24 453//472
f 76//26 452//463 467//469
f 446//466 445//464 460//471 461//473
f 439//467 438//465 453//472 454//474
f 447//453 446//466 461//473 462//475
f 440//455 439//467 454//474 455//476
f 448//454 447//453 462//475 463//477
f 441//456 440//455 455//476 456//478
f 449//457 448//454 463//477 464//479
f 442//458 441//456 456//478 457//480
f 450//459 449//457 464//479 465//481
f 443//460 442//458 457//480 458//482
f 451//461 450//459 465//481 466//468
f 444//462 443//460 458//482 459//470
f 464//479 463//477 478//6 479//5
f 457//480 456//478 471//1 472//9
f 465//481 464//479 479//5 480//11
f 458//482 457//480 472//9 473//13
f 466//468 465//481 480//11 481//15
f 459//470 458//482 473//13 474//17
f 467//469 466//468 481//15 482//19
f 460//471 459//470 474//17 475//21
f 453//472 272//24 468//23
f 76//26 467//469 482//19
f 461//473 460//471 475//21 476//27
f 454//474 453//472 468//23 469//29
f 462//475 461//473 476//27 477//31
f 455//476 454//474 469//29 470//2
f 463//477 462//475 477//31 478//6
f 456//478 455//476 470//2 471//1
