# Blender v2.77 (sub 0) OBJ File: ''
# www.blender.org
mtllib cube.mtl
o Cube
usemtl Material
s off
v 1.181980 -1.181980 -1.181980
v 1.346793 -1.346793 1.346793
v -1.168600 -1.168600 1.168600
v -1.152729 -1.152729 -1.152729
v 1.223916 1.223916 -1.223915
v 1.177659 1.177660 1.177661
v -1.273107 1.273107 1.273107
v -1.349372 1.349372 -1.349372
vt 0.0000 0.0000
vt 1.0000 0.0000
vt 1.0000 1.0000
vt 0.0000 1.0000
vt 0.0000 0.0000
vt 1.0000 0.0000
vt 1.0000 1.0000
vt 0.0000 1.0000
vt 1.0000 0.0000
vt 1.0000 1.0000
vt 0.0000 1.0000
vt 0.0000 0.0000
vt 1.0000 0.0000
vt 0.0000 1.0000
vt 0.0000 0.0000
vt 1.0000 0.0000
vt 1.0000 1.0000
vt 1.0000 0.0000
vt 1.0000 1.0000
vt 0.0000 1.0000
vn -0.0663 -0.9960 -0.0606
vn 0.0473 0.9985 0.0277
vn 0.9997 -0.0171 0.0189
vn 0.0415 0.0696 0.9967
vn -0.9986 -0.0439 0.0278
vn -0.0127 -0.0172 -0.9998
f 1/1/1 2/2/1 3/3/1 4/4/1
f 5/5/2 8/6/2 7/7/2 6/8/2
f 1/1/3 5/9/3 6/10/3 2/11/3
f 2/12/4 6/13/4 7/7/4 3/14/4
f 3/15/5 7/16/5 8/17/5 4/4/5
f 5/5/6 1/18/6 4/19/6 8/20/6
