# Blender v2.78 (sub 0) OBJ File: ''
# www.blender.org
mtllib sphere.mtl
o Sphere
usemtl None
s 1
v 0.038387 0.989222 -0.192988
v 0.074211 0.918343 -0.373081
v 0.104510 0.801733 -0.525407
v 0.143347 0.734772 -0.720654
v 0.159810 0.547345 -0.803420
v 0.179766 0.381677 -0.903745
v 0.185084 0.188709 -0.930477
v 0.193384 0.000000 -0.972207
v 0.190450 -0.194181 -0.957456
v 0.179574 -0.381269 -0.902778
v 0.163779 -0.560935 -0.823369
v 0.138630 -0.710591 -0.696937
v 0.109141 -0.837258 -0.548688
v 0.075052 -0.928752 -0.377309
v 0.037806 -0.974250 -0.190066
v 0.073060 0.959791 -0.176382
v 0.149437 0.942740 -0.360770
v 0.214441 0.838640 -0.517706
v 0.269807 0.705039 -0.651370
v 0.327296 0.571470 -0.790162
v 0.356223 0.385573 -0.859998
v 0.380666 0.197864 -0.919010
v 0.388128 0.000000 -0.937021
v 0.364103 -0.189254 -0.879022
v 0.356782 -0.386177 -0.861346
v 0.305889 -0.534093 -0.738482
v 0.269776 -0.704959 -0.651297
v 0.218208 -0.853371 -0.526800
v 0.146737 -0.925712 -0.354254
v 0.074143 -0.974023 -0.178997
v 0.110155 0.996782 -0.164858
v 0.207885 0.903356 -0.311121
v 0.311418 0.838904 -0.466070
v 0.388480 0.699245 -0.581401
v 0.453895 0.545895 -0.679302
v 0.505733 0.377056 -0.756883
v 0.549985 0.196912 -0.823110
v 0.559094 0.000000 -0.836744
v 0.541645 -0.193926 -0.810629
v 0.527393 -0.393205 -0.789299
v 0.459095 -0.552149 -0.687084
v 0.396773 -0.714172 -0.593812
v 0.303075 -0.816432 -0.453585
v 0.218879 -0.951131 -0.327574
v 0.110351 -0.998566 -0.165152
v 0.133947 0.952326 -0.133947
v 0.269940 0.921634 -0.269940
v 0.393071 0.831941 -0.393070
v 0.517924 0.732456 -0.517924
v 0.567712 0.536458 -0.567712
v 0.656116 0.384343 -0.656115
v 0.714559 0.201008 -0.714559
v 0.709338 0.000000 -0.709338
v 0.706286 -0.198681 -0.706286
v 0.652571 -0.382266 -0.652570
v 0.599153 -0.566168 -0.599153
v 0.500918 -0.708406 -0.500918
v 0.390388 -0.826263 -0.390387
v 0.271961 -0.928532 -0.271961
v 0.135201 -0.961238 -0.135200
v 0.162811 0.984408 -0.108786
v 0.315864 0.917125 -0.211052
v 0.467903 0.842202 -0.312642
v 0.603113 0.725358 -0.402987
v 0.693658 0.557431 -0.463488
v 0.757673 0.377450 -0.506261
v 0.814500 0.194853 -0.544232
v 0.838239 0.000000 -0.560093
v 0.819181 -0.195972 -0.547359
v 0.768409 -0.382798 -0.513435
v 0.705070 -0.566602 -0.471113
v 0.603571 -0.725909 -0.403293
v 0.472565 -0.850595 -0.315758
v 0.306673 -0.890439 -0.204911
v 0.160775 -0.972099 -0.107426
v 0.000000 -0.972542 0.000000
v 0.179640 0.977521 -0.074410
v 0.349026 0.912049 -0.144571
v 0.505150 0.818300 -0.209239
v 0.668766 0.723867 -0.277012
v 0.736646 0.532765 -0.305128
v 0.835736 0.374695 -0.346173
v 0.908286 0.195555 -0.376224
v 0.928972 0.000000 -0.384792
v 0.918662 -0.197789 -0.380522
v 0.846098 -0.379340 -0.350465
v 0.764232 -0.552716 -0.316554
v 0.648300 -0.701715 -0.268534
v 0.524165 -0.849102 -0.217116
v 0.346566 -0.905619 -0.143551
v 0.180880 -0.984269 -0.074923
v 0.187902 0.963153 -0.037376
v 0.377444 0.929082 -0.075078
v 0.552320 0.842800 -0.109863
v 0.719550 0.733647 -0.143127
v 0.809238 0.551309 -0.160967
v 0.915485 0.386635 -0.182101
v 0.982792 0.199319 -0.195489
v 0.965427 0.000000 -0.192035
v 0.935096 -0.189646 -0.186001
v 0.884459 -0.373532 -0.175930
v 0.803487 -0.547391 -0.159823
v 0.693834 -0.707427 -0.138011
v 0.563137 -0.859306 -0.112015
v 0.388135 -0.955400 -0.077205
v 0.188113 -0.964235 -0.037418
v 0.193821 0.974400 0.000000
v 0.372338 0.898903 0.000000
v 0.551825 0.825865 0.000000
v 0.702472 0.702472 0.000000
v 0.805759 0.538390 0.000000
v 0.933660 0.386734 0.000000
v 0.960549 0.191065 0.000000
v 0.987771 0.000000 0.000000
v 0.975249 -0.193989 0.000000
v 0.957676 -0.396682 0.000000
v 0.838164 -0.560043 0.000000
v 0.704047 -0.704047 0.000000
v 0.560256 -0.838483 0.000000
v 0.373754 -0.902321 0.000000
v 0.192891 -0.969728 0.000000
v 0.193937 0.994085 0.038577
v 0.366768 0.902803 0.072955
v 0.542685 0.828098 0.107947
v 0.676751 0.690010 0.134615
v 0.810830 0.552393 0.161284
v 0.916029 0.386864 0.182209
v 0.963024 0.195310 0.191558
v 0.979310 0.000000 0.194798
v 0.970744 -0.196876 0.193093
v 0.892085 -0.376752 0.177447
v 0.830658 -0.565902 0.165229
v 0.668336 -0.681430 0.132941
v 0.544901 -0.831479 0.108388
v 0.368705 -0.907574 0.073340
v 0.192956 -0.989058 0.038382
v 0.184964 1.006493 0.076615
v 0.349478 0.913230 0.144759
v 0.516582 0.836819 0.213976
v 0.668807 0.723911 0.277029
v 0.764518 0.552923 0.316674
v 0.847401 0.379924 0.351005
v 0.869622 0.187231 0.360210
v 0.931524 0.000000 0.385850
v 0.902897 -0.194395 0.373993
v 0.858356 -0.384836 0.355543
v 0.770784 -0.557455 0.319269
v 0.663153 -0.717791 0.274687
v 0.511069 -0.827889 0.211692
v 0.354058 -0.925199 0.146656
v 0.177858 -0.967824 0.073671
v 0.161183 0.974565 0.107700
v 0.316221 0.918163 0.211292
v 0.467316 0.841146 0.312251
v 0.567201 0.682167 0.378992
v 0.698690 0.561475 0.466850
v 0.774417 0.385791 0.517449
v 0.805438 0.192685 0.538177
v 0.856745 0.000000 0.572459
v 0.802959 -0.192091 0.536520
v 0.785964 -0.391543 0.525164
v 0.697771 -0.560737 0.466236
v 0.580285 -0.697903 0.387735
v 0.454892 -0.818783 0.303949
v 0.318956 -0.926105 0.213120
v 0.163928 -0.991161 0.109534
v 0.139776 0.993769 0.139776
v 0.274138 0.935968 0.274139
v 0.397679 0.841695 0.397679
v 0.492975 0.697172 0.492975
v 0.583020 0.550923 0.583020
v 0.664528 0.389271 0.664528
v 0.690943 0.194365 0.690943
v 0.734856 0.000000 0.734856
v 0.684096 -0.192439 0.684096
v 0.648686 -0.379991 0.648686
v 0.599388 -0.566389 0.599388
v 0.502356 -0.710439 0.502356
v 0.401930 -0.850693 0.401930
v 0.266814 -0.910962 0.266814
v 0.139361 -0.990815 0.139361
v 0.109914 0.994611 0.164499
v 0.216761 0.941926 0.324405
v 0.315867 0.850890 0.472729
v 0.392999 0.707378 0.588164
v 0.460814 0.554216 0.689657
v 0.524424 0.390992 0.784857
v 0.538828 0.192918 0.806413
v 0.551814 0.000000 0.825848
v 0.545891 -0.195447 0.816984
v 0.504822 -0.376377 0.755520
v 0.462988 -0.556830 0.692910
v 0.393570 -0.708406 0.589018
v 0.301728 -0.812801 0.451568
v 0.213225 -0.926562 0.319114
v 0.107736 -0.974901 0.161239
v 0.075821 0.996062 0.183047
v 0.147447 0.930190 0.355969
v 0.212570 0.831321 0.513188
v 0.269012 0.702964 0.649454
v 0.311536 0.543952 0.752114
v 0.351444 0.380400 0.848462
v 0.380873 0.197971 0.919511
v 0.379295 0.000000 0.915700
v 0.376607 -0.195754 0.909212
v 0.366572 -0.396774 0.884984
v 0.317742 -0.554787 0.767095
v 0.266249 -0.695743 0.642783
v 0.212411 -0.830700 0.512805
v 0.142951 -0.901823 0.345113
v 0.074056 -0.972876 0.178787
v 0.037718 0.971971 0.189622
v 0.076684 0.948952 0.385517
v 0.104628 0.802637 0.526001
v 0.142257 0.729183 0.715172
v 0.161711 0.553854 0.812975
v 0.184620 0.391982 0.928147
v 0.193327 0.197114 0.971921
v 0.191333 0.000000 0.961896
v 0.189716 -0.193433 0.953768
v 0.180735 -0.383733 0.908615
v 0.161498 -0.553125 0.811904
v 0.134852 -0.691225 0.677943
v 0.109937 -0.843369 0.552693
v 0.073466 -0.909129 0.369338
v 0.037616 -0.969349 0.189111
v -0.000000 0.969083 0.192763
v 0.000000 0.944362 0.391168
v 0.000000 0.816618 0.545647
v -0.000000 0.708677 0.708677
v -0.000000 0.540196 0.808462
v 0.000000 0.378946 0.914858
v -0.000000 0.198839 0.999633
v -0.000000 0.000000 1.006238
v -0.000000 -0.198311 0.996979
v 0.000000 -0.384706 0.928765
v -0.000000 -0.548580 0.821008
v -0.000000 -0.715056 0.715056
v -0.000000 -0.821402 0.548843
v 0.000000 -0.899345 0.372521
v 0.000000 -1.010418 0.200985
v -0.038087 0.981493 0.191480
v -0.075881 0.939009 0.381477
v -0.109611 0.840864 0.551052
v -0.137859 0.706642 0.693064
v -0.159496 0.546268 0.801839
v -0.185225 0.393268 0.931191
v -0.194385 0.198192 0.977236
v -0.188961 0.000000 0.949972
v -0.193558 -0.197350 0.973082
v -0.177587 -0.377050 0.892791
v -0.165446 -0.566647 0.831752
v -0.133541 -0.684509 0.671356
v -0.105094 -0.806218 0.528347
v -0.074824 -0.925938 0.376167
v -0.039056 -1.006454 0.196350
v -0.073925 0.971152 0.178470
v -0.148769 0.938529 0.359160
v -0.212810 0.832261 0.513768
v -0.273249 0.714033 0.659681
v -0.324345 0.566317 0.783038
v -0.353410 0.382529 0.853210
v -0.379592 0.197305 0.916416
v -0.371847 0.000000 0.897718
v -0.382833 -0.198990 0.924242
v -0.353964 -0.383127 0.854545
v -0.321935 -0.562108 0.777218
v -0.269377 -0.703917 0.650335
v -0.212961 -0.832852 0.514133
v -0.151507 -0.955800 0.365769
v -0.075382 -0.990296 0.181988
v -0.000000 0.990965 0.000001
v -0.110235 0.997520 0.164980
v -0.212333 0.922685 0.317779
v -0.305643 0.823349 0.457428
v -0.389626 0.701309 0.583117
v -0.447558 0.538273 0.669818
v -0.511179 0.381117 0.765034
v -0.557225 0.199504 0.833946
v -0.561952 0.000000 0.841021
v -0.562927 -0.201546 0.842480
v -0.501309 -0.373758 0.750263
v -0.469608 -0.564793 0.702818
v -0.399137 -0.718429 0.597352
v -0.313802 -0.845326 0.469638
v -0.208286 -0.905103 0.311723
v -0.109822 -0.993782 0.164362
v -0.138970 0.988039 0.138970
v -0.265949 0.908007 0.265949
v -0.391106 0.827782 0.391106
v -0.504817 0.713920 0.504817
v -0.574318 0.542700 0.574318
v -0.659571 0.386367 0.659572
v -0.677815 0.190672 0.677815
v -0.714013 0.000000 0.714013
v -0.712568 -0.200448 0.712568
v -0.647713 -0.379421 0.647714
v -0.603944 -0.570695 0.603944
v -0.484832 -0.685657 0.484832
v -0.392162 -0.830020 0.392163
v -0.268449 -0.916542 0.268449
v -0.135450 -0.963013 0.135450
v -0.159111 0.962033 0.106315
v -0.330152 0.958613 0.220601
v -0.461138 0.830026 0.308123
v -0.588742 0.708073 0.393385
v -0.693351 0.557184 0.463282
v -0.780014 0.388579 0.521189
v -0.804454 0.192449 0.537519
v -0.856290 0.000000 0.572154
v -0.836193 -0.200042 0.558726
v -0.753359 -0.375300 0.503378
v -0.714330 -0.574043 0.477300
v -0.581399 -0.699243 0.388479
v -0.458333 -0.824978 0.306248
v -0.313443 -0.910096 0.209436
v -0.158803 -0.960172 0.106109
v -0.177804 0.967529 0.073649
v -0.355661 0.929390 0.147320
v -0.529895 0.858384 0.219490
v -0.641163 0.693990 0.265578
v -0.755914 0.546701 0.313111
v -0.851503 0.381764 0.352705
v -0.920834 0.198257 0.381422
v -0.934406 0.000000 0.387044
v -0.893316 -0.192332 0.370024
v -0.845383 -0.379020 0.350170
v -0.765528 -0.553654 0.317093
v -0.644345 -0.697435 0.266897
v -0.513206 -0.831351 0.212578
v -0.344259 -0.899593 0.142597
v -0.184473 -1.003821 0.076412
v -0.189312 0.970378 0.037657
v -0.376295 0.926255 0.074850
v -0.528249 0.806070 0.105076
v -0.705299 0.719117 0.140293
v -0.805533 0.548784 0.160231
v -0.912517 0.385382 0.181511
v -0.970047 0.196734 0.192955
v -0.985112 0.000000 0.195951
v -0.993063 -0.201402 0.197533
v -0.909809 -0.384238 0.180972
v -0.809379 -0.551405 0.160996
v -0.707835 -0.721702 0.140797
v -0.546504 -0.833926 0.108707
v -0.375653 -0.924674 0.074722
v -0.192980 -0.989181 0.038387
v -0.193769 0.974145 0.000000
v -0.384819 0.929037 0.000000
v -0.550657 0.824117 0.000000
v -0.703820 0.703820 0.000000
v -0.809263 0.540732 0.000000
v -0.931854 0.385986 0.000000
v -0.947980 0.188565 0.000000
v -1.003164 0.000000 0.000000
v -0.969957 -0.192936 0.000000
v -0.922768 -0.382223 0.000000
v -0.828101 -0.553319 0.000000
v -0.694294 -0.694294 0.000000
v -0.553281 -0.828045 0.000000
v -0.376227 -0.908293 0.000000
v -0.199269 -1.001797 0.000000
v -0.192584 0.987152 -0.038307
v -0.374170 0.921025 -0.074427
v -0.530652 0.809736 -0.105553
v -0.676844 0.690104 -0.134632
v -0.803207 0.547200 -0.159767
v -0.924579 0.390476 -0.183910
v -0.952779 0.193232 -0.189520
v -0.969451 0.000000 -0.192836
v -0.966770 -0.196070 -0.192303
v -0.921554 -0.389198 -0.183309
v -0.808078 -0.550518 -0.160736
v -0.680954 -0.694295 -0.135450
v -0.542801 -0.828275 -0.107970
v -0.372820 -0.917702 -0.074159
v -0.189361 -0.970629 -0.037666
v -0.178675 0.972271 -0.074010
v -0.353838 0.924625 -0.146564
v -0.516902 0.837338 -0.214107
v -0.670561 0.725810 -0.277755
v -0.773264 0.559249 -0.320296
v -0.838168 0.375785 -0.347180
v -0.889362 0.191480 -0.368386
v -0.928478 0.000000 -0.384588
v -0.903705 -0.194568 -0.374327
v -0.852401 -0.382167 -0.353076
v -0.798887 -0.577780 -0.330909
v -0.656225 -0.710294 -0.271817
v -0.521492 -0.844773 -0.216009
v -0.350617 -0.916207 -0.145230
v -0.182535 -0.993275 -0.075608
v -0.160041 0.967660 -0.106936
v -0.317152 0.920867 -0.211914
v -0.473495 0.852269 -0.316379
v -0.591547 0.711448 -0.395259
v -0.708570 0.569415 -0.473451
v -0.747300 0.372282 -0.499330
v -0.813760 0.194675 -0.543737
v -0.847917 0.000000 -0.566560
v -0.809988 -0.193773 -0.541216
v -0.771064 -0.384121 -0.515208
v -0.672609 -0.540517 -0.449423
v -0.581559 -0.699435 -0.388585
v -0.471528 -0.848727 -0.315064
v -0.325986 -0.946518 -0.217816
v -0.162714 -0.983819 -0.108721
v -0.142573 1.013655 -0.142572
v -0.274007 0.935519 -0.274007
v -0.396464 0.839125 -0.396464
v -0.493718 0.698223 -0.493718
v -0.592963 0.560320 -0.592963
v -0.656667 0.384666 -0.656667
v -0.675784 0.190101 -0.675784
v -0.702612 0.000000 -0.702612
v -0.707253 -0.198953 -0.707253
v -0.668914 -0.391841 -0.668914
v -0.585433 -0.553203 -0.585433
v -0.504914 -0.714057 -0.504914
v -0.397317 -0.840931 -0.397317
v -0.265994 -0.908162 -0.265994
v -0.139581 -0.992378 -0.139580
v -0.110198 0.997178 -0.164922
v -0.213812 0.929118 -0.319993
v -0.313524 0.844578 -0.469221
v -0.380589 0.685043 -0.569591
v -0.449520 0.540633 -0.672754
v -0.503816 0.375627 -0.754013
v -0.536681 0.192149 -0.803199
v -0.554852 0.000000 -0.830394
v -0.545766 -0.195402 -0.816796
v -0.516902 -0.385383 -0.773597
v -0.456150 -0.548608 -0.682677
v -0.396493 -0.713669 -0.593393
v -0.303067 -0.816409 -0.453572
v -0.204878 -0.890293 -0.306622
v -0.109397 -0.989933 -0.163724
v -0.074106 0.973538 -0.178908
v -0.146627 0.925013 -0.353987
v -0.207991 0.813416 -0.502135
v -0.271275 0.708875 -0.654915
v -0.314525 0.549172 -0.759330
v -0.343602 0.371912 -0.829530
v -0.367464 0.191001 -0.887136
v -0.387497 0.000000 -0.935500
v -0.384131 -0.199665 -0.927375
v -0.355318 -0.384593 -0.857814
v -0.316648 -0.552879 -0.764456
v -0.268153 -0.700717 -0.647377
v -0.212376 -0.830568 -0.512722
v -0.150705 -0.950747 -0.363834
v -0.074589 -0.979876 -0.180073
v -0.036942 0.951971 -0.185721
v -0.074638 0.923639 -0.375232
v -0.107122 0.821777 -0.538543
v -0.137101 0.702754 -0.689250
v -0.167925 0.575140 -0.844218
v -0.182257 0.386966 -0.916268
v -0.189291 0.193000 -0.951634
v -0.198277 0.000000 -0.996809
v -0.194163 -0.197968 -0.976128
v -0.177187 -0.376202 -0.890780
v -0.164566 -0.563634 -0.827329
v -0.137242 -0.703477 -0.689960
v -0.111553 -0.855764 -0.560816
v -0.074593 -0.923075 -0.375003
v -0.037931 -0.977450 -0.190690
v 0.000000 0.974151 -0.193770
v 0.000000 0.899378 -0.372534
v 0.000000 0.847475 -0.566265
v 0.000000 0.695314 -0.695313
v 0.000000 0.570843 -0.854327
v 0.000000 0.379771 -0.916850
v 0.000000 0.191276 -0.961611
v 0.000000 0.000000 -0.974635
v 0.000000 -0.197363 -0.992213
v 0.000000 -0.390371 -0.942440
v 0.000000 -0.561281 -0.840017
v 0.000000 -0.691483 -0.691482
v 0.000000 -0.837571 -0.559646
v 0.000000 -0.926528 -0.383780
v 0.000000 -0.991443 -0.197210
vn 0.0000 0.7040 -0.7101
vn 0.0000 0.8286 -0.5598
vn 0.1092 0.8286 -0.5490
vn 0.1385 0.7040 -0.6965
vn 0.0000 -0.7040 -0.7101
vn 0.0000 -0.5528 -0.8333
vn 0.1626 -0.5528 -0.8173
vn 0.1385 -0.7040 -0.6965
vn 0.0000 0.5528 -0.8333
vn 0.1626 0.5528 -0.8173
vn 0.0000 -0.8286 -0.5598
vn 0.1092 -0.8286 -0.5490
vn 0.0000 0.3805 -0.9247
vn 0.1804 0.3805 -0.9070
vn 0.0000 -0.9217 -0.3879
vn 0.0757 -0.9217 -0.3804
vn 0.0000 0.1939 -0.9810
vn 0.1914 0.1939 -0.9622
vn 0.0000 -0.9796 -0.2010
vn 0.0392 -0.9796 -0.1971
vn 0.0000 0.0000 -1.0000
vn 0.1951 0.0000 -0.9808
vn 0.0000 0.9796 -0.2010
vn 0.0000 1.0000 0.0000
vn 0.0392 0.9796 -0.1971
vn 0.0000 -1.0000 0.0000
vn 0.0000 -0.1939 -0.9810
vn 0.1914 -0.1939 -0.9622
vn 0.0000 0.9217 -0.3879
vn 0.0757 0.9217 -0.3804
vn 0.0000 -0.3805 -0.9247
vn 0.1804 -0.3805 -0.9070
vn 0.3754 -0.1939 -0.9063
vn 0.3539 -0.3805 -0.8544
vn 0.1484 0.9217 -0.3583
vn 0.2142 0.8286 -0.5171
vn 0.3189 -0.5528 -0.7699
vn 0.2717 0.7040 -0.6561
vn 0.2717 -0.7040 -0.6561
vn 0.3189 0.5528 -0.7699
vn 0.2142 -0.8286 -0.5171
vn 0.3539 0.3805 -0.8544
vn 0.1484 -0.9217 -0.3583
vn 0.3754 0.1939 -0.9063
vn 0.0769 -0.9796 -0.1856
vn 0.3827 0.0000 -0.9239
vn 0.0769 0.9796 -0.1856
vn 0.3110 -0.8286 -0.4654
vn 0.2155 -0.9217 -0.3225
vn 0.5137 0.3805 -0.7689
vn 0.5450 0.1939 -0.8157
vn 0.1116 -0.9796 -0.1671
vn 0.5556 0.0000 -0.8314
vn 0.1116 0.9796 -0.1671
vn 0.5450 -0.1939 -0.8157
vn 0.2155 0.9217 -0.3225
vn 0.5137 -0.3805 -0.7689
vn 0.3110 0.8286 -0.4654
vn 0.4630 -0.5528 -0.6929
vn 0.3945 0.7040 -0.5904
vn 0.3945 -0.7040 -0.5904
vn 0.4630 0.5528 -0.6929
vn 0.6539 -0.3805 -0.6539
vn 0.5893 -0.5528 -0.5893
vn 0.3958 0.8286 -0.3958
vn 0.5021 0.7040 -0.5021
vn 0.5021 -0.7040 -0.5021
vn 0.5893 0.5528 -0.5893
vn 0.3958 -0.8286 -0.3958
vn 0.6539 0.3805 -0.6539
vn 0.2743 -0.9217 -0.2743
vn 0.6937 0.1939 -0.6937
vn 0.1421 -0.9796 -0.1421
vn 0.7071 0.0000 -0.7071
vn 0.1421 0.9796 -0.1421
vn 0.6937 -0.1939 -0.6937
vn 0.2743 0.9217 -0.2743
vn 0.3225 -0.9217 -0.2155
vn 0.1671 -0.9796 -0.1116
vn 0.8157 0.1939 -0.5450
vn 0.8314 0.0000 -0.5556
vn 0.1671 0.9796 -0.1116
vn 0.8157 -0.1939 -0.5450
vn 0.3225 0.9217 -0.2155
vn 0.7689 -0.3805 -0.5137
vn 0.4654 0.8286 -0.3110
vn 0.6929 -0.5528 -0.4630
vn 0.5904 0.7040 -0.3945
vn 0.5904 -0.7040 -0.3945
vn 0.6929 0.5528 -0.4630
vn 0.4654 -0.8286 -0.3110
vn 0.7689 0.3805 -0.5137
vn 0.5171 0.8286 -0.2142
vn 0.6561 0.7040 -0.2717
vn 0.7699 -0.5528 -0.3189
vn 0.6561 -0.7040 -0.2717
vn 0.7699 0.5528 -0.3189
vn 0.5171 -0.8286 -0.2142
vn 0.8544 0.3805 -0.3539
vn 0.3583 -0.9217 -0.1484
vn 0.9063 0.1939 -0.3754
vn 0.1856 -0.9796 -0.0769
vn 0.9239 0.0000 -0.3827
vn 0.1856 0.9796 -0.0769
vn 0.9063 -0.1939 -0.3754
vn 0.3583 0.9217 -0.1484
vn 0.8544 -0.3805 -0.3539
vn 0.9622 0.1939 -0.1914
vn 0.9808 0.0000 -0.1951
vn 0.1971 0.9796 -0.0392
vn 0.1971 -0.9796 -0.0392
vn 0.9622 -0.1939 -0.1914
vn 0.3804 0.9217 -0.0757
vn 0.9070 -0.3805 -0.1804
vn 0.5490 0.8286 -0.1092
vn 0.8173 -0.5528 -0.1626
vn 0.6965 0.7040 -0.1385
vn 0.6965 -0.7040 -0.1385
vn 0.8173 0.5528 -0.1626
vn 0.5490 -0.8286 -0.1092
vn 0.9070 0.3805 -0.1804
vn 0.3804 -0.9217 -0.0757
vn 0.8333 -0.5528 0.0000
vn 0.7101 -0.7040 0.0000
vn 0.7101 0.7040 0.0000
vn 0.8333 0.5528 0.0000
vn 0.5598 -0.8286 0.0000
vn 0.9247 0.3805 0.0000
vn 0.3879 -0.9217 0.0000
vn 0.9810 0.1939 0.0000
vn 0.2010 -0.9796 0.0000
vn 1.0000 0.0000 0.0000
vn 0.2010 0.9796 0.0000
vn 0.9810 -0.1939 0.0000
vn 0.3879 0.9217 0.0000
vn 0.9247 -0.3805 0.0000
vn 0.5598 0.8286 0.0000
vn 0.1971 0.9796 0.0392
vn 0.1971 -0.9796 0.0392
vn 0.9808 0.0000 0.1951
vn 0.9622 -0.1939 0.1914
vn 0.3804 0.9217 0.0757
vn 0.9070 -0.3805 0.1804
vn 0.5490 0.8286 0.1092
vn 0.8173 -0.5528 0.1626
vn 0.6965 0.7040 0.1385
vn 0.6965 -0.7040 0.1385
vn 0.8173 0.5528 0.1626
vn 0.5490 -0.8286 0.1092
vn 0.9070 0.3805 0.1804
vn 0.3804 -0.9217 0.0757
vn 0.9622 0.1939 0.1914
vn 0.6561 0.7040 0.2717
vn 0.7699 0.5528 0.3189
vn 0.6561 -0.7040 0.2717
vn 0.5171 -0.8286 0.2142
vn 0.8544 0.3805 0.3539
vn 0.3583 -0.9217 0.1484
vn 0.9063 0.1939 0.3754
vn 0.1856 -0.9796 0.0769
vn 0.9239 0.0000 0.3827
vn 0.1856 0.9796 0.0769
vn 0.9063 -0.1939 0.3754
vn 0.3583 0.9217 0.1484
vn 0.8544 -0.3805 0.3539
vn 0.5171 0.8286 0.2142
vn 0.7699 -0.5528 0.3189
vn 0.8314 0.0000 0.5556
vn 0.8157 -0.1939 0.5450
vn 0.1671 0.9796 0.1116
vn 0.3225 0.9217 0.2155
vn 0.7689 -0.3805 0.5137
vn 0.4654 0.8286 0.3110
vn 0.6929 -0.5528 0.4630
vn 0.5904 0.7040 0.3945
vn 0.5904 -0.7040 0.3945
vn 0.6929 0.5528 0.4630
vn 0.4654 -0.8286 0.3110
vn 0.7689 0.3805 0.5137
vn 0.3225 -0.9217 0.2155
vn 0.8157 0.1939 0.5450
vn 0.1671 -0.9796 0.1116
vn 0.5021 -0.7040 0.5021
vn 0.3958 -0.8286 0.3958
vn 0.5893 0.5528 0.5893
vn 0.6539 0.3805 0.6539
vn 0.2743 -0.9217 0.2743
vn 0.6937 0.1939 0.6937
vn 0.1421 -0.9796 0.1421
vn 0.7071 0.0000 0.7071
vn 0.1421 0.9796 0.1421
vn 0.6937 -0.1939 0.6937
vn 0.2743 0.9217 0.2743
vn 0.6539 -0.3805 0.6539
vn 0.3958 0.8286 0.3958
vn 0.5893 -0.5528 0.5893
vn 0.5021 0.7040 0.5021
vn 0.5450 -0.1939 0.8157
vn 0.5137 -0.3805 0.7689
vn 0.2155 0.9217 0.3225
vn 0.3110 0.8286 0.4654
vn 0.4630 -0.5528 0.6929
vn 0.3945 0.7040 0.5904
vn 0.3945 -0.7040 0.5904
vn 0.4630 0.5528 0.6929
vn 0.3110 -0.8286 0.4654
vn 0.5137 0.3805 0.7689
vn 0.2155 -0.9217 0.3225
vn 0.5450 0.1939 0.8157
vn 0.1116 -0.9796 0.1671
vn 0.5556 0.0000 0.8314
vn 0.1116 0.9796 0.1671
vn 0.2142 -0.8286 0.5171
vn 0.1484 -0.9217 0.3583
vn 0.3539 0.3805 0.8544
vn 0.3754 0.1939 0.9063
vn 0.0769 -0.9796 0.1856
vn 0.3827 0.0000 0.9239
vn 0.0769 0.9796 0.1856
vn 0.3754 -0.1939 0.9063
vn 0.1484 0.9217 0.3583
vn 0.3539 -0.3805 0.8544
vn 0.2142 0.8286 0.5171
vn 0.3189 -0.5528 0.7699
vn 0.2717 0.7040 0.6561
vn 0.2717 -0.7040 0.6561
vn 0.3189 0.5528 0.7699
vn 0.0757 0.9217 0.3804
vn 0.1092 0.8286 0.5490
vn 0.1804 -0.3805 0.9070
vn 0.1626 -0.5528 0.8173
vn 0.1385 0.7040 0.6965
vn 0.1385 -0.7040 0.6965
vn 0.1626 0.5528 0.8173
vn 0.1092 -0.8286 0.5490
vn 0.1804 0.3805 0.9070
vn 0.0757 -0.9217 0.3804
vn 0.1914 0.1939 0.9622
vn 0.0392 -0.9796 0.1971
vn 0.1951 0.0000 0.9808
vn 0.0392 0.9796 0.1971
vn 0.1914 -0.1939 0.9622
vn 0.0000 0.3805 0.9247
vn 0.0000 0.1939 0.9810
vn 0.0000 -0.9217 0.3879
vn 0.0000 -0.9796 0.2010
vn 0.0000 0.0000 1.0000
vn 0.0000 0.9796 0.2010
vn 0.0000 -0.1939 0.9810
vn 0.0000 0.9217 0.3879
vn 0.0000 -0.3805 0.9247
vn 0.0000 0.8286 0.5598
vn 0.0000 -0.5528 0.8333
vn 0.0000 0.7040 0.7101
vn 0.0000 -0.7040 0.7101
vn 0.0000 0.5528 0.8333
vn 0.0000 -0.8286 0.5598
vn -0.1804 -0.3805 0.9070
vn -0.1626 -0.5528 0.8173
vn -0.1092 0.8286 0.5490
vn -0.1385 0.7040 0.6965
vn -0.1385 -0.7040 0.6965
vn -0.1626 0.5528 0.8173
vn -0.1092 -0.8286 0.5490
vn -0.1804 0.3805 0.9070
vn -0.0757 -0.9217 0.3804
vn -0.1914 0.1939 0.9622
vn -0.0392 -0.9796 0.1971
vn -0.1951 0.0000 0.9808
vn -0.0392 0.9796 0.1971
vn -0.1914 -0.1939 0.9622
vn -0.0757 0.9217 0.3804
vn -0.1484 -0.9217 0.3583
vn -0.0769 -0.9796 0.1856
vn -0.3754 0.1939 0.9063
vn -0.3827 0.0000 0.9239
vn -0.0769 0.9796 0.1856
vn -0.3754 -0.1939 0.9063
vn -0.1484 0.9217 0.3583
vn -0.3539 -0.3805 0.8544
vn -0.2142 0.8286 0.5171
vn -0.3189 -0.5528 0.7699
vn -0.2717 0.7040 0.6561
vn -0.2717 -0.7040 0.6561
vn -0.3189 0.5528 0.7699
vn -0.2142 -0.8286 0.5171
vn -0.3539 0.3805 0.8544
vn -0.3110 0.8286 0.4654
vn -0.3945 0.7040 0.5904
vn -0.4630 -0.5528 0.6929
vn -0.3945 -0.7040 0.5904
vn -0.4630 0.5528 0.6929
vn -0.3110 -0.8286 0.4654
vn -0.5137 0.3805 0.7689
vn -0.2155 -0.9217 0.3225
vn -0.5450 0.1939 0.8157
vn -0.1116 -0.9796 0.1671
vn -0.5556 0.0000 0.8314
vn -0.1116 0.9796 0.1671
vn -0.5450 -0.1939 0.8157
vn -0.2155 0.9217 0.3225
vn -0.5137 -0.3805 0.7689
vn -0.6937 0.1939 0.6937
vn -0.7071 0.0000 0.7071
vn -0.1421 0.9796 0.1421
vn -0.1421 -0.9796 0.1421
vn -0.6937 -0.1939 0.6937
vn -0.2743 0.9217 0.2743
vn -0.6539 -0.3805 0.6539
vn -0.3958 0.8286 0.3958
vn -0.5893 -0.5528 0.5893
vn -0.5021 0.7040 0.5021
vn -0.5021 -0.7040 0.5021
vn -0.5893 0.5528 0.5893
vn -0.3958 -0.8286 0.3958
vn -0.6539 0.3805 0.6539
vn -0.2743 -0.9217 0.2743
vn -0.6929 -0.5528 0.4630
vn -0.5904 -0.7040 0.3945
vn -0.5904 0.7040 0.3945
vn -0.6929 0.5528 0.4630
vn -0.4654 -0.8286 0.3110
vn -0.7689 0.3805 0.5137
vn -0.3225 -0.9217 0.2155
vn -0.8157 0.1939 0.5450
vn -0.1671 -0.9796 0.1116
vn -0.8314 0.0000 0.5556
vn -0.1671 0.9796 0.1116
vn -0.8157 -0.1939 0.5450
vn -0.3225 0.9217 0.2155
vn -0.7689 -0.3805 0.5137
vn -0.4654 0.8286 0.3110
vn -0.1856 -0.9796 0.0769
vn -0.9239 0.0000 0.3827
vn -0.9063 -0.1939 0.3754
vn -0.1856 0.9796 0.0769
vn -0.3583 0.9217 0.1484
vn -0.8544 -0.3805 0.3539
vn -0.5171 0.8286 0.2142
vn -0.7699 -0.5528 0.3189
vn -0.6561 0.7040 0.2717
vn -0.6561 -0.7040 0.2717
vn -0.7699 0.5528 0.3189
vn -0.5171 -0.8286 0.2142
vn -0.8544 0.3805 0.3539
vn -0.3583 -0.9217 0.1484
vn -0.9063 0.1939 0.3754
vn -0.6965 -0.7040 0.1385
vn -0.5490 -0.8286 0.1092
vn -0.8173 0.5528 0.1626
vn -0.9070 0.3805 0.1804
vn -0.3804 -0.9217 0.0757
vn -0.9622 0.1939 0.1914
vn -0.1971 -0.9796 0.0392
vn -0.9808 0.0000 0.1951
vn -0.1971 0.9796 0.0392
vn -0.9622 -0.1939 0.1914
vn -0.3804 0.9217 0.0757
vn -0.9070 -0.3805 0.1804
vn -0.5490 0.8286 0.1092
vn -0.8173 -0.5528 0.1626
vn -0.6965 0.7040 0.1385
vn -0.2010 0.9796 0.0000
vn -0.3879 0.9217 0.0000
vn -0.9810 -0.1939 0.0000
vn -0.9247 -0.3805 0.0000
vn -0.5598 0.8286 0.0000
vn -0.8333 -0.5528 0.0000
vn -0.7101 0.7040 0.0000
vn -0.7101 -0.7040 0.0000
vn -0.8333 0.5528 0.0000
vn -0.5598 -0.8286 0.0000
vn -0.9247 0.3805 0.0000
vn -0.3879 -0.9217 0.0000
vn -0.9810 0.1939 0.0000
vn -0.2010 -0.9796 0.0000
vn -1.0000 0.0000 0.0000
vn -0.8173 0.5528 -0.1626
vn -0.9070 0.3805 -0.1804
vn -0.5490 -0.8286 -0.1092
vn -0.3804 -0.9217 -0.0757
vn -0.9622 0.1939 -0.1914
vn -0.1971 -0.9796 -0.0392
vn -0.9808 0.0000 -0.1951
vn -0.1971 0.9796 -0.0392
vn -0.9622 -0.1939 -0.1914
vn -0.3804 0.9217 -0.0757
vn -0.9070 -0.3805 -0.1804
vn -0.5490 0.8286 -0.1092
vn -0.8173 -0.5528 -0.1626
vn -0.6965 0.7040 -0.1385
vn -0.6965 -0.7040 -0.1385
vn -0.9063 -0.1939 -0.3754
vn -0.8544 -0.3805 -0.3539
vn -0.3583 0.9217 -0.1484
vn -0.5171 0.8286 -0.2142
vn -0.7699 -0.5528 -0.3189
vn -0.6561 0.7040 -0.2717
vn -0.6561 -0.7040 -0.2717
vn -0.7699 0.5528 -0.3189
vn -0.5171 -0.8286 -0.2142
vn -0.8544 0.3805 -0.3539
vn -0.3583 -0.9217 -0.1484
vn -0.9063 0.1939 -0.3754
vn -0.1856 -0.9796 -0.0769
vn -0.9239 0.0000 -0.3827
vn -0.1856 0.9796 -0.0769
vn -0.4654 -0.8286 -0.3110
vn -0.3225 -0.9217 -0.2155
vn -0.7689 0.3805 -0.5137
vn -0.8157 0.1939 -0.5450
vn -0.1671 -0.9796 -0.1116
vn -0.8314 0.0000 -0.5556
vn -0.1671 0.9796 -0.1116
vn -0.8157 -0.1939 -0.5450
vn -0.3225 0.9217 -0.2155
vn -0.7689 -0.3805 -0.5137
vn -0.4654 0.8286 -0.3110
vn -0.6929 -0.5528 -0.4630
vn -0.5904 0.7040 -0.3945
vn -0.5904 -0.7040 -0.3945
vn -0.6929 0.5528 -0.4630
vn -0.2743 0.9217 -0.2743
vn -0.3958 0.8286 -0.3958
vn -0.6539 -0.3805 -0.6539
vn -0.5893 -0.5528 -0.5893
vn -0.5021 0.7040 -0.5021
vn -0.5021 -0.7040 -0.5021
vn -0.5893 0.5528 -0.5893
vn -0.3958 -0.8286 -0.3958
vn -0.6539 0.3805 -0.6539
vn -0.2743 -0.9217 -0.2743
vn -0.6937 0.1939 -0.6937
vn -0.1421 -0.9796 -0.1421
vn -0.7071 0.0000 -0.7071
vn -0.1421 0.9796 -0.1421
vn -0.6937 -0.1939 -0.6937
vn -0.5137 0.3805 -0.7689
vn -0.5450 0.1939 -0.8157
vn -0.2155 -0.9217 -0.3225
vn -0.1116 -0.9796 -0.1671
vn -0.5556 0.0000 -0.8314
vn -0.1116 0.9796 -0.1671
vn -0.5450 -0.1939 -0.8157
vn -0.2155 0.9217 -0.3225
vn -0.5137 -0.3805 -0.7689
vn -0.3110 0.8286 -0.4654
vn -0.4630 -0.5528 -0.6929
vn -0.3945 0.7040 -0.5904
vn -0.3945 -0.7040 -0.5904
vn -0.4630 0.5528 -0.6929
vn -0.3110 -0.8286 -0.4654
vn -0.3539 -0.3805 -0.8544
vn -0.3189 -0.5528 -0.7699
vn -0.2142 0.8286 -0.5171
vn -0.2717 0.7040 -0.6561
vn -0.2717 -0.7040 -0.6561
vn -0.3189 0.5528 -0.7699
vn -0.2142 -0.8286 -0.5171
vn -0.3539 0.3805 -0.8544
vn -0.1484 -0.9217 -0.3583
vn -0.3754 0.1939 -0.9063
vn -0.0769 -0.9796 -0.1856
vn -0.3827 0.0000 -0.9239
vn -0.0769 0.9796 -0.1856
vn -0.3754 -0.1939 -0.9063
vn -0.1484 0.9217 -0.3583
vn -0.0757 -0.9217 -0.3804
vn -0.0392 -0.9796 -0.1971
vn -0.1914 0.1939 -0.9622
vn -0.1951 0.0000 -0.9808
vn -0.0392 0.9796 -0.1971
vn -0.1914 -0.1939 -0.9622
vn -0.0757 0.9217 -0.3804
vn -0.1804 -0.3805 -0.9070
vn -0.1092 0.8286 -0.5490
vn -0.1626 -0.5528 -0.8173
vn -0.1385 0.7040 -0.6965
vn -0.1385 -0.7040 -0.6965
vn -0.1626 0.5528 -0.8173
vn -0.1092 -0.8286 -0.5490
vn -0.1804 0.3805 -0.9070
f 471//1 470//2 3//3 4//4
f 479//5 478//6 11//7 12//8
f 472//9 471//1 4//4 5//10
f 480//11 479//5 12//8 13//12
f 473//13 472//9 5//10 6//14
f 481//15 480//11 13//12 14//16
f 474//17 473//13 6//14 7//18
f 482//19 481//15 14//16 15//20
f 475//21 474//17 7//18 8//22
f 468//23 272//24 1//25
f 76//26 482//19 15//20
f 476//27 475//21 8//22 9//28
f 469//29 468//23 1//25 2//30
f 477//31 476//27 9//28 10//32
f 470//2 469//29 2//30 3//3
f 478//6 477//31 10//32 11//7
f 10//32 9//28 24//33 25//34
f 3//3 2//30 17//35 18//36
f 11//7 10//32 25//34 26//37
f 4//4 3//3 18//36 19//38
f 12//8 11//7 26//37 27//39
f 5//10 4//4 19//38 20//40
f 13//12 12//8 27//39 28//41
f 6//14 5//10 20//40 21//42
f 14//16 13//12 28//41 29//43
f 7//18 6//14 21//42 22//44
f 15//20 14//16 29//43 30//45
f 8//22 7//18 22//44 23//46
f 1//25 272//24 16//47
f 76//26 15//20 30//45
f 9//28 8//22 23//46 24//33
f 2//30 1//25 16//47 17//35
f 29//43 28//41 43//48 44//49
f 22//44 21//42 36//50 37//51
f 30//45 29//43 44//49 45//52
f 23//46 22//44 37//51 38//53
f 16//47 272//24 31//54
f 76//26 30//45 45//52
f 24//33 23//46 38//53 39//55
f 17//35 16//47 31//54 32//56
f 25//34 24//33 39//55 40//57
f 18//36 17//35 32//56 33//58
f 26//37 25//34 40//57 41//59
f 19//38 18//36 33//58 34//60
f 27//39 26//37 41//59 42//61
f 20//40 19//38 34//60 35//62
f 28//41 27//39 42//61 43//48
f 21//42 20//40 35//62 36//50
f 41//59 40//57 55//63 56//64
f 34//60 33//58 48//65 49//66
f 42//61 41//59 56//64 57//67
f 35//62 34//60 49//66 50//68
f 43//48 42//61 57//67 58//69
f 36//50 35//62 50//68 51//70
f 44//49 43//48 58//69 59//71
f 37//51 36//50 51//70 52//72
f 45//52 44//49 59//71 60//73
f 38//53 37//51 52//72 53//74
f 31//54 272//24 46//75
f 76//26 45//52 60//73
f 39//55 38//53 53//74 54//76
f 32//56 31//54 46//75 47//77
f 40//57 39//55 54//76 55//63
f 33//58 32//56 47//77 48//65
f 60//73 59//71 74//78 75//79
f 53//74 52//72 67//80 68//81
f 46//75 272//24 61//82
f 76//26 60//73 75//79
f 54//76 53//74 68//81 69//83
f 47//77 46//75 61//82 62//84
f 55//63 54//76 69//83 70//85
f 48//65 47//77 62//84 63//86
f 56//64 55//63 70//85 71//87
f 49//66 48//65 63//86 64//88
f 57//67 56//64 71//87 72//89
f 50//68 49//66 64//88 65//90
f 58//69 57//67 72//89 73//91
f 51//70 50//68 65//90 66//92
f 59//71 58//69 73//91 74//78
f 52//72 51//70 66//92 67//80
f 64//88 63//86 79//93 80//94
f 72//89 71//87 87//95 88//96
f 65//90 64//88 80//94 81//97
f 73//91 72//89 88//96 89//98
f 66//92 65//90 81//97 82//99
f 74//78 73//91 89//98 90//100
f 67//80 66//92 82//99 83//101
f 75//79 74//78 90//100 91//102
f 68//81 67//80 83//101 84//103
f 61//82 272//24 77//104
f 76//26 75//79 91//102
f 69//83 68//81 84//103 85//105
f 62//84 61//82 77//104 78//106
f 70//85 69//83 85//105 86//107
f 63//86 62//84 78//106 79//93
f 71//87 70//85 86//107 87//95
f 84//103 83//101 98//108 99//109
f 77//104 272//24 92//110
f 76//26 91//102 106//111
f 85//105 84//103 99//109 100//112
f 78//106 77//104 92//110 93//113
f 86//107 85//105 100//112 101//114
f 79//93 78//106 93//113 94//115
f 87//95 86//107 101//114 102//116
f 80//94 79//93 94//115 95//117
f 88//96 87//95 102//116 103//118
f 81//97 80//94 95//117 96//119
f 89//98 88//96 103//118 104//120
f 82//99 81//97 96//119 97//121
f 90//100 89//98 104//120 105//122
f 83//101 82//99 97//121 98//108
f 91//102 90//100 105//122 106//111
f 103//118 102//116 117//123 118//124
f 96//119 95//117 110//125 111//126
f 104//120 103//118 118//124 119//127
f 97//121 96//119 111//126 112//128
f 105//122 104//120 119//127 120//129
f 98//108 97//121 112//128 113//130
f 106//111 105//122 120//129 121//131
f 99//109 98//108 113//130 114//132
f 92//110 272//24 107//133
f 76//26 106//111 121//131
f 100//112 99//109 114//132 115//134
f 93//113 92//110 107//133 108//135
f 101//114 100//112 115//134 116//136
f 94//115 93//113 108//135 109//137
f 102//116 101//114 116//136 117//123
f 95//117 94//115 109//137 110//125
f 107//133 272//24 122//138
f 76//26 121//131 136//139
f 115//134 114//132 129//140 130//141
f 108//135 107//133 122//138 123//142
f 116//136 115//134 130//141 131//143
f 109//137 108//135 123//142 124//144
f 117//123 116//136 131//143 132//145
f 110//125 109//137 124//144 125//146
f 118//124 117//123 132//145 133//147
f 111//126 110//125 125//146 126//148
f 119//127 118//124 133//147 134//149
f 112//128 111//126 126//148 127//150
f 120//129 119//127 134//149 135//151
f 113//130 112//128 127//150 128//152
f 121//131 120//129 135//151 136//139
f 114//132 113//130 128//152 129//140
f 126//148 125//146 140//153 141//154
f 134//149 133//147 148//155 149//156
f 127//150 126//148 141//154 142//157
f 135//151 134//149 149//156 150//158
f 128//152 127//150 142//157 143//159
f 136//139 135//151 150//158 151//160
f 129//140 128//152 143//159 144//161
f 122//138 272//24 137//162
f 76//26 136//139 151//160
f 130//141 129//140 144//161 145//163
f 123//142 122//138 137//162 138//164
f 131//143 130//141 145//163 146//165
f 124//144 123//142 138//164 139//166
f 132//145 131//143 146//165 147//167
f 125//146 124//144 139//166 140//153
f 133//147 132//145 147//167 148//155
f 145//163 144//161 159//168 160//169
f 138//164 137//162 152//170 153//171
f 146//165 145//163 160//169 161//172
f 139//166 138//164 153//171 154//173
f 147//167 146//165 161//172 162//174
f 140//153 139//166 154//173 155//175
f 148//155 147//167 162//174 163//176
f 141//154 140//153 155//175 156//177
f 149//156 148//155 163//176 164//178
f 142//157 141//154 156//177 157//179
f 150//158 149//156 164//178 165//180
f 143//159 142//157 157//179 158//181
f 151//160 150//158 165//180 166//182
f 144//161 143//159 158//181 159//168
f 137//162 272//24 152//170
f 76//26 151//160 166//182
f 164//178 163//176 178//183 179//184
f 157//179 156//177 171//185 172//186
f 165//180 164//178 179//184 180//187
f 158//181 157//179 172//186 173//188
f 166//182 165//180 180//187 181//189
f 159//168 158//181 173//188 174//190
f 152//170 272//24 167//191
f 76//26 166//182 181//189
f 160//169 159//168 174//190 175//192
f 153//171 152//170 167//191 168//193
f 161//172 160//169 175//192 176//194
f 154//173 153//171 168//193 169//195
f 162//174 161//172 176//194 177//196
f 155//175 154//173 169//195 170//197
f 163//176 162//174 177//196 178//183
f 156//177 155//175 170//197 171//185
f 176//194 175//192 190//198 191//199
f 169//195 168//193 183//200 184//201
f 177//196 176//194 191//199 192//202
f 170//197 169//195 184//201 185//203
f 178//183 177//196 192//202 193//204
f 171//185 170//197 185//203 186//205
f 179//184 178//183 193//204 194//206
f 172//186 171//185 186//205 187//207
f 180//187 179//184 194//206 195//208
f 173//188 172//186 187//207 188//209
f 181//189 180//187 195//208 196//210
f 174//190 173//188 188//209 189//211
f 167//191 272//24 182//212
f 76//26 181//189 196//210
f 175//192 174//190 189//211 190//198
f 168//193 167//191 182//212 183//200
f 195//208 194//206 209//213 210//214
f 188//209 187//207 202//215 203//216
f 196//210 195//208 210//214 211//217
f 189//211 188//209 203//216 204//218
f 182//212 272//24 197//219
f 76//26 196//210 211//217
f 190//198 189//211 204//218 205//220
f 183//200 182//212 197//219 198//221
f 191//199 190//198 205//220 206//222
f 184//201 183//200 198//221 199//223
f 192//202 191//199 206//222 207//224
f 185//203 184//201 199//223 200//225
f 193//204 192//202 207//224 208//226
f 186//205 185//203 200//225 201//227
f 194//206 193//204 208//226 209//213
f 187//207 186//205 201//227 202//215
f 199//223 198//221 213//228 214//229
f 207//224 206//222 221//230 222//231
f 200//225 199//223 214//229 215//232
f 208//226 207//224 222//231 223//233
f 201//227 200//225 215//232 216//234
f 209//213 208//226 223//233 224//235
f 202//215 201//227 216//234 217//236
f 210//214 209//213 224//235 225//237
f 203//216 202//215 217//236 218//238
f 211//217 210//214 225//237 226//239
f 204//218 203//216 218//238 219//240
f 197//219 272//24 212//241
f 76//26 211//217 226//239
f 205//220 204//218 219//240 220//242
f 198//221 197//219 212//241 213//228
f 206//222 205//220 220//242 221//230
f 218//238 217//236 232//243 233//244
f 226//239 225//237 240//245 241//246
f 219//240 218//238 233//244 234//247
f 212//241 272//24 227//248
f 76//26 226//239 241//246
f 220//242 219//240 234//247 235//249
f 213//228 212//241 227//248 228//250
f 221//230 220//242 235//249 236//251
f 214//229 213//228 228//250 229//252
f 222//231 221//230 236//251 237//253
f 215//232 214//229 229//252 230//254
f 223//233 222//231 237//253 238//255
f 216//234 215//232 230//254 231//256
f 224//235 223//233 238//255 239//257
f 217//236 216//234 231//256 232//243
f 225//237 224//235 239//257 240//245
f 237//253 236//251 251//258 252//259
f 230//254 229//252 244//260 245//261
f 238//255 237//253 252//259 253//262
f 231//256 230//254 245//261 246//263
f 239//257 238//255 253//262 254//264
f 232//243 231//256 246//263 247//265
f 240//245 239//257 254//264 255//266
f 233//244 232//243 247//265 248//267
f 241//246 240//245 255//266 256//268
f 234//247 233//244 248//267 249//269
f 227//248 272//24 242//270
f 76//26 241//246 256//268
f 235//249 234//247 249//269 250//271
f 228//250 227//248 242//270 243//272
f 236//251 235//249 250//271 251//258
f 229//252 228//250 243//272 244//260
f 256//268 255//266 270//273 271//274
f 249//269 248//267 263//275 264//276
f 242//270 272//24 257//277
f 76//26 256//268 271//274
f 250//271 249//269 264//276 265//278
f 243//272 242//270 257//277 258//279
f 251//258 250//271 265//278 266//280
f 244//260 243//272 258//279 259//281
f 252//259 251//258 266//280 267//282
f 245//261 244//260 259//281 260//283
f 253//262 252//259 267//282 268//284
f 246//263 245//261 260//283 261//285
f 254//264 253//262 268//284 269//286
f 247//265 246//263 261//285 262//287
f 255//266 254//264 269//286 270//273
f 248//267 247//265 262//287 263//275
f 260//283 259//281 275//288 276//289
f 268//284 267//282 283//290 284//291
f 261//285 260//283 276//289 277//292
f 269//286 268//284 284//291 285//293
f 262//287 261//285 277//292 278//294
f 270//273 269//286 285//293 286//295
f 263//275 262//287 278//294 279//296
f 271//274 270//273 286//295 287//297
f 264//276 263//275 279//296 280//298
f 257//277 272//24 273//299
f 76//26 271//274 287//297
f 265//278 264//276 280//298 281//300
f 258//279 257//277 273//299 274//301
f 266//280 265//278 281//300 282//302
f 259//281 258//279 274//301 275//288
f 267//282 266//280 282//302 283//290
f 280//298 279//296 294//303 295//304
f 273//299 272//24 288//305
f 76//26 287//297 302//306
f 281//300 280//298 295//304 296//307
f 274//301 273//299 288//305 289//308
f 282//302 281//300 296//307 297//309
f 275//288 274//301 289//308 290//310
f 283//290 282//302 297//309 298//311
f 276//289 275//288 290//310 291//312
f 284//291 283//290 298//311 299//313
f 277//292 276//289 291//312 292//314
f 285//293 284//291 299//313 300//315
f 278//294 277//292 292//314 293//316
f 286//295 285//293 300//315 301//317
f 279//296 278//294 293//316 294//303
f 287//297 286//295 301//317 302//306
f 299//313 298//311 313//318 314//319
f 292//314 291//312 306//320 307//321
f 300//315 299//313 314//319 315//322
f 293//316 292//314 307//321 308//323
f 301//317 300//315 315//322 316//324
f 294//303 293//316 308//323 309//325
f 302//306 301//317 316//324 317//326
f 295//304 294//303 309//325 310//327
f 288//305 272//24 303//328
f 76//26 302//306 317//326
f 296//307 295//304 310//327 311//329
f 289//308 288//305 303//328 304//330
f 297//309 296//307 311//329 312//331
f 290//310 289//308 304//330 305//332
f 298//311 297//309 312//331 313//318
f 291//312 290//310 305//332 306//320
f 76//26 317//326 332//333
f 311//329 310//327 325//334 326//335
f 304//330 303//328 318//336 319//337
f 312//331 311//329 326//335 327//338
f 305//332 304//330 319//337 320//339
f 313//318 312//331 327//338 328//340
f 306//320 305//332 320//339 321//341
f 314//319 313//318 328//340 329//342
f 307//321 306//320 321//341 322//343
f 315//322 314//319 329//342 330//344
f 308//323 307//321 322//343 323//345
f 316//324 315//322 330//344 331//346
f 309//325 308//323 323//345 324//347
f 317//326 316//324 331//346 332//333
f 310//327 309//325 324//347 325//334
f 303//328 272//24 318//336
f 330//344 329//342 344//348 345//349
f 323//345 322//343 337//350 338//351
f 331//346 330//344 345//349 346//352
f 324//347 323//345 338//351 339//353
f 332//333 331//346 346//352 347//354
f 325//334 324//347 339//353 340//355
f 318//336 272//24 333//356
f 76//26 332//333 347//354
f 326//335 325//334 340//355 341//357
f 319//337 318//336 333//356 334//358
f 327//338 326//335 341//357 342//359
f 320//339 319//337 334//358 335//360
f 328//340 327//338 342//359 343//361
f 321//341 320//339 335//360 336//362
f 329//342 328//340 343//361 344//348
f 322//343 321//341 336//362 337//350
f 334//358 333//356 348//363 349//364
f 342//359 341//357 356//365 357//366
f 335//360 334//358 349//364 350//367
f 343//361 342//359 357//366 358//368
f 336//362 335//360 350//367 351//369
f 344//348 343//361 358//368 359//370
f 337//350 336//362 351//369 352//371
f 345//349 344//348 359//370 360//372
f 338//351 337//350 352//371 353//373
f 346//352 345//349 360//372 361//374
f 339//353 338//351 353//373 354//375
f 347//354 346//352 361//374 362//376
f 340//355 339//353 354//375 355//377
f 333//356 272//24 348//363
f 76//26 347//354 362//376
f 341//357 340//355 355//377 356//365
f 353//373 352//371 367//378 368//379
f 361//374 360//372 375//380 376//381
f 354//375 353//373 368//379 369//382
f 362//376 361//374 376//381 377//383
f 355//377 354//375 369//382 370//384
f 348//363 272//24 363//385
f 76//26 362//376 377//383
f 356//365 355//377 370//384 371//386
f 349//364 348//363 363//385 364//387
f 357//366 356//365 371//386 372//388
f 350//367 349//364 364//387 365//389
f 358//368 357//366 372//388 373//390
f 351//369 350//367 365//389 366//391
f 359//370 358//368 373//390 374//392
f 352//371 351//369 366//391 367//378
f 360//372 359//370 374//392 375//380
f 372//388 371//386 386//393 387//394
f 365//389 364//387 379//395 380//396
f 373//390 372//388 387//394 388//397
f 366//391 365//389 380//396 381//398
f 374//392 373//390 388//397 389//399
f 367//378 366//391 381//398 382//400
f 375//380 374//392 389//399 390//401
f 368//379 367//378 382//400 383//402
f 376//381 375//380 390//401 391//403
f 369//382 368//379 383//402 384//404
f 377//383 376//381 391//403 392//405
f 370//384 369//382 384//404 385//406
f 363//385 272//24 378//407
f 76//26 377//383 392//405
f 371//386 370//384 385//406 386//393
f 364//387 363//385 378//407 379//395
f 391//403 390//401 405//408 406//409
f 384//404 383//402 398//410 399//411
f 392//405 391//403 406//409 407//412
f 385//406 384//404 399//411 400//413
f 378//407 272//24 393//414
f 76//26 392//405 407//412
f 386//393 385//406 400//413 401//415
f 379//395 378//407 393//414 394//416
f 387//394 386//393 401//415 402//417
f 380//396 379//395 394//416 395//418
f 388//397 387//394 402//417 403//419
f 381//398 380//396 395//418 396//420
f 389//399 388//397 403//419 404//421
f 382//400 381//398 396//420 397//422
f 390//401 389//399 404//421 405//408
f 383//402 382//400 397//422 398//410
f 395//418 394//416 409//423 410//424
f 403//419 402//417 417//425 418//426
f 396//420 395//418 410//424 411//427
f 404//421 403//419 418//426 419//428
f 397//422 396//420 411//427 412//429
f 405//408 404//421 419//428 420//430
f 398//410 397//422 412//429 413//431
f 406//409 405//408 420//430 421//432
f 399//411 398//410 413//431 414//433
f 407//412 406//409 421//432 422//434
f 400//413 399//411 414//433 415//435
f 393//414 272//24 408//436
f 76//26 407//412 422//434
f 401//415 400//413 415//435 416//437
f 394//416 393//414 408//436 409//423
f 402//417 401//415 416//437 417//425
f 414//433 413//431 428//438 429//439
f 422//434 421//432 436//440 437//441
f 415//435 414//433 429//439 430//442
f 408//436 272//24 423//443
f 76//26 422//434 437//441
f 416//437 415//435 430//442 431//444
f 409//423 408//436 423//443 424//445
f 417//425 416//437 431//444 432//446
f 410//424 409//423 424//445 425//447
f 418//426 417//425 432//446 433//448
f 411//427 410//424 425//447 426//449
f 419//428 418//426 433//448 434//450
f 412//429 411//427 426//449 427//451
f 420//430 419//428 434//450 435//452
f 413//431 412//429 427//451 428//438
f 421//432 420//430 435//452 436//440
f 433//448 432//446 447//453 448//454
f 426//449 425//447 440//455 441//456
f 434//450 433//448 448//454 449//457
f 427//451 426//449 441//456 442//458
f 435//452 434//450 449//457 450//459
f 428//438 427//451 442//458 443//460
f 436//440 435//452 450//459 451//461
f 429//439 428//438 443//460 444//462
f 437//441 436//440 451//461 452//463
f 430//442 429//439 444//462 445//464
f 423//443 272//24 438//465
f 76//26 437//441 452//463
f 431//444 430//442 445//464 446//466
f 424//445 423//443 438//465 439//467
f 432//446 431//444 446//466 447//453
f 425//447 424//445 439//467 440//455
f 452//463 451//461 466//468 467//469
f 445//464 444//462 459//470 460//471
f 438//465 272//24 453//472
f 76//26 452//463 467//469
f 446//466 445//464 460//471 461//473
f 439//467 438//465 453//472 454//474
f 447//453 446//466 461//473 462//475
f 440//455 439//467 454//474 455//476
f 448//454 447//453 462//475 463//477
f 441//456 440//455 455//476 456//478
f 449//457 448//454 463//477 464//479
f 442//458 441//456 456//478 457//480
f 450//459 449//457 464//479 465//481
f 443//460 442//458 457//480 458//482
f 451//461 450//459 465//481 466//468
f 444//462 443//460 458//482 459//470
f 464//479 463//477 478//6 479//5
f 457//480 456//478 471//1 472//9
f 465//481 464//479 479//5 480//11
f 458//482 457//480 472//9 473//13
f 466//468 465//481 480//11 481//15
f 459//470 458//482 473//13 474//17
f 467//469 466//468 481//15 482//19
f 460//471 459//470 474//17 475//21
f 453//472 272//24 468//23
f 76//26 467//469 482//19
f 461//473 460//471 475//21 476//27
f 454//474 453//472 468//23 469//29
f 462//475 461//473 476//27 477//31
f 455//476 454//474 469//29 470//2
f 463//477 462//475 477//31 478//6
f 456//478 455//476 470//2 471//1
