# Blender v2.77 (sub 0) OBJ File: ''
# www.blender.org
mtllib cube.mtl
o Cube
usemtl Material
s off
v 1.167480 -1.167480 -1.167480
v 1.119909 -1.119909 1.119909
v -1.189090 -1.189090 1.189090
v -1.188524 -1.188524 -1.188524
v 1.290910 1.290910 -1.290908
v 1.264271 1.264273 1.264274
v -1.294972 1.294972 1.294972
v -1.075985 1.075985 -1.075985
vt 0.0000 0.0000
vt 1.0000 0.0000
vt 1.0000 1.0000
vt 0.0000 1.0000
vt 0.0000 0.0000
vt 1.0000 0.0000
vt 1.0000 1.0000
vt 0.0000 1.0000
vt 1.0000 0.0000
vt 1.0000 1.0000
vt 0.0000 1.0000
vt 0.0000 0.0000
vt 1.0000 0.0000
vt 0.0000 1.0000
vt 0.0000 0.0000
vt 1.0000 0.0000
vt 1.0000 1.0000
vt 1.0000 0.0000
vt 1.0000 1.0000
vt 0.0000 1.0000
vn 0.0306 -0.9993 0.0214
vn -0.0990 0.9900 -0.1006
vn 0.9987 -0.0496 0.0099
vn 0.0112 -0.0611 0.9981
vn -0.9953 -0.0387 -0.0884
vn 0.0094 -0.0506 -0.9987
f 1/1/1 2/2/1 3/3/1 4/4/1
f 5/5/2 8/6/2 7/7/2 6/8/2
f 1/1/3 5/9/3 6/10/3 2/11/3
f 2/12/4 6/13/4 7/7/4 3/14/4
f 3/15/5 7/16/5 8/17/5 4/4/5
f 5/5/6 1/18/6 4/19/6 8/20/6
