# Blender v2.77 (sub 0) OBJ File: ''
# www.blender.org
mtllib cube.mtl
o Cube
usemtl Material
s off
v 1.171587 -1.171587 -1.171587
v 1.109075 -1.109075 1.109075
v -1.226570 -1.226570 1.226570
v -1.312815 -1.312815 -1.312815
v 1.193805 1.193804 -1.193803
v 1.327059 1.327060 1.327062
v -1.321394 1.321394 1.321394
v -1.213987 1.213987 -1.213987
vt 0.0000 0.0000
vt 1.0000 0.0000
vt 1.0000 1.0000
vt 0.0000 1.0000
vt 0.0000 0.0000
vt 1.0000 0.0000
vt 1.0000 1.0000
vt 0.0000 1.0000
vt 1.0000 0.0000
vt 1.0000 1.0000
vt 0.0000 1.0000
vt 0.0000 0.0000
vt 1.0000 0.0000
vt 0.0000 1.0000
vt 0.0000 0.0000
vt 1.0000 0.0000
vt 1.0000 1.0000
vt 1.0000 0.0000
vt 1.0000 1.0000
vt 0.0000 1.0000
vn 0.0517 -0.9982 0.0288
vn 0.0087 0.9991 -0.0420
vn 0.9986 -0.0099 -0.0523
vn -0.0019 -0.0890 0.9960
vn -0.9985 -0.0356 -0.0408
vn 0.0573 -0.0099 -0.9983
f 1/1/1 2/2/1 3/3/1 4/4/1
f 5/5/2 8/6/2 7/7/2 6/8/2
f 1/1/3 5/9/3 6/10/3 2/11/3
f 2/12/4 6/13/4 7/7/4 3/14/4
f 3/15/5 7/16/5 8/17/5 4/4/5
f 5/5/6 1/18/6 4/19/6 8/20/6
