# Blender v2.77 (sub 0) OBJ File: ''
# www.blender.org
mtllib cube.mtl
o Cube
usemtl Material
s off
v 1.168268 -1.168268 -1.168268
v 1.199609 -1.199609 1.199609
v -1.153943 -1.153943 1.153943
v -1.164063 -1.164063 -1.164063
v 1.186936 1.186936 -1.186935
v 1.178307 1.178308 1.178309
v -1.218318 1.218318 1.218317
v -1.350020 1.350020 -1.350020
vt 0.0000 0.0000
vt 1.0000 0.0000
vt 1.0000 1.0000
vt 0.0000 1.0000
vt 0.0000 0.0000
vt 1.0000 0.0000
vt 1.0000 1.0000
vt 0.0000 1.0000
vt 1.0000 0.0000
vt 1.0000 1.0000
vt 0.0000 1.0000
vt 0.0000 0.0000
vt 1.0000 0.0000
vt 0.0000 1.0000
vt 0.0000 0.0000
vt 1.0000 0.0000
vt 1.0000 1.0000
vt 1.0000 0.0000
vt 1.0000 1.0000
vt 0.0000 1.0000
vn -0.0191 -0.9997 -0.0130
vn 0.0610 0.9970 0.0480
vn 1.0000 -0.0079 0.0036
vn 0.0168 0.0091 0.9998
vn -0.9984 -0.0284 0.0497
vn -0.0018 -0.0079 -1.0000
f 1/1/1 2/2/1 3/3/1 4/4/1
f 5/5/2 8/6/2 7/7/2 6/8/2
f 1/1/3 5/9/3 6/10/3 2/11/3
f 2/12/4 6/13/4 7/7/4 3/14/4
f 3/15/5 7/16/5 8/17/5 4/4/5
f 5/5/6 1/18/6 4/19/6 8/20/6
