# Blender v2.77 (sub 0) OBJ File: ''
# www.blender.org
mtllib cube.mtl
o Cube
usemtl Material
s off
v 1.225141 -1.225141 -1.225141
v 1.170881 -1.170881 1.170881
v -1.313278 -1.313278 1.313278
v -1.075700 -1.075700 -1.075700
v 1.178086 1.178086 -1.178085
v 1.247123 1.247124 1.247125
v -1.195471 1.195472 1.195471
v -1.288171 1.288171 -1.288171
vt 0.0000 0.0000
vt 1.0000 0.0000
vt 1.0000 1.0000
vt 0.0000 1.0000
vt 0.0000 0.0000
vt 1.0000 0.0000
vt 1.0000 1.0000
vt 0.0000 1.0000
vt 1.0000 0.0000
vt 1.0000 1.0000
vt 0.0000 1.0000
vt 0.0000 0.0000
vt 1.0000 0.0000
vt 0.0000 1.0000
vt 0.0000 0.0000
vt 1.0000 0.0000
vt 1.0000 1.0000
vt 1.0000 0.0000
vt 1.0000 1.0000
vt 0.0000 1.0000
vn 0.0586 -0.9980 0.0239
vn 0.0430 0.9984 0.0357
vn 0.9994 0.0201 -0.0290
vn -0.0205 -0.0309 0.9993
vn -0.9980 0.0487 0.0391
vn -0.0636 0.0183 -0.9978
f 1/1/1 2/2/1 3/3/1 4/4/1
f 5/5/2 8/6/2 7/7/2 6/8/2
f 1/1/3 5/9/3 6/10/3 2/11/3
f 2/12/4 6/13/4 7/7/4 3/14/4
f 3/15/5 7/16/5 8/17/5 4/4/5
f 5/5/6 1/18/6 4/19/6 8/20/6
