# Blender v2.77 (sub 0) OBJ File: ''
# www.blender.org
mtllib cube.mtl
o Cube
usemtl Material
s off
v 1.218390 -1.218390 -1.218390
v 1.117075 -1.117075 1.117075
v -1.252378 -1.252378 1.252378
v -1.251812 -1.251812 -1.251812
v 1.253692 1.253692 -1.253690
v 1.294551 1.294552 1.294554
v -1.213672 1.213672 1.213672
v -1.106264 1.106264 -1.106264
vt 0.0000 0.0000
vt 1.0000 0.0000
vt 1.0000 1.0000
vt 0.0000 1.0000
vt 0.0000 0.0000
vt 1.0000 0.0000
vt 1.0000 1.0000
vt 0.0000 1.0000
vt 1.0000 0.0000
vt 1.0000 1.0000
vt 0.0000 1.0000
vt 0.0000 0.0000
vt 1.0000 0.0000
vt 0.0000 1.0000
vt 0.0000 0.0000
vt 1.0000 0.0000
vt 1.0000 1.0000
vt 1.0000 0.0000
vt 1.0000 1.0000
vt 0.0000 1.0000
vn 0.0596 -0.9972 0.0458
vn -0.0653 0.9967 -0.0492
vn 0.9998 -0.0145 -0.0158
vn -0.0299 -0.0712 0.9970
vn -0.9988 0.0149 -0.0469
vn 0.0137 -0.0145 -0.9998
f 1/1/1 2/2/1 3/3/1 4/4/1
f 5/5/2 8/6/2 7/7/2 6/8/2
f 1/1/3 5/9/3 6/10/3 2/11/3
f 2/12/4 6/13/4 7/7/4 3/14/4
f 3/15/5 7/16/5 8/17/5 4/4/5
f 5/5/6 1/18/6 4/19/6 8/20/6
